<svg xmlns="http://www.w3.org/2000/svg" width="530.278" height="85.120" viewBox="0 0 530.278 85.120" fill="none">
  <path d="M 29.792 85.12 C 11.872 85.12 0 74.48 0 58.912 L 14.448 58.912 C 14.56 65.968 20.384 71.456 30.24 71.456 C 38.64 71.456 44.016 67.872 44.016 61.936 C 44.016 44.016 2.352 58.464 2.352 26.432 C 2.352 14 12.208 3.808 29.456 3.808 C 44.352 3.808 57.008 11.648 57.456 28 L 42.56 28 C 42.448 21.504 37.856 17.136 29.456 17.136 C 21.168 17.136 17.136 21.28 17.136 26.208 C 17.136 42.56 59.36 29.12 59.36 60.816 C 59.36 74.704 48.608 85.12 29.792 85.12 Z" fill="currentColor" fill-rule="nonzero"></path>
  <path d="M 93.023 83.664 C 80.815 83.664 73.423 76.72 73.423 64.064 L 73.423 36.4 L 63.455 36.4 L 63.455 24.864 L 70.063 24.864 C 72.639 24.864 74.319 23.184 74.319 20.384 L 74.319 8.512 L 87.983 8.512 L 87.983 24.752 L 104.223 24.752 L 104.223 36.4 L 87.983 36.4 L 87.983 63.504 C 87.983 68.432 90.447 71.568 96.047 71.568 L 103.887 71.568 L 103.887 83.664 L 93.023 83.664 Z" fill="currentColor" fill-rule="nonzero"></path>
  <path d="M 136.196 85.12 C 119.732 85.12 108.42 72.8 108.42 54.544 C 108.42 36.064 119.62 23.296 135.748 23.296 C 145.94 23.296 151.652 29.344 153.668 32.368 L 154.452 32.368 L 154.452 24.752 L 169.012 24.752 L 169.012 83.664 L 154.676 83.664 L 154.676 76.16 L 153.892 76.16 C 152.212 78.624 146.948 85.12 136.196 85.12 Z M 138.996 72.016 C 148.74 72.016 154.788 64.176 154.788 54.32 C 154.788 43.232 148.068 36.512 138.884 36.512 C 129.588 36.512 123.204 43.904 123.204 54.32 C 123.204 64.96 129.588 72.016 138.996 72.016 Z" fill="currentColor" fill-rule="nonzero"></path>
  <path d="M 179.386 83.664 L 179.386 24.752 L 193.162 24.752 L 193.162 34.384 L 194.058 34.384 C 195.962 29.792 201.338 24.528 209.514 24.528 L 214.89 24.528 L 214.89 38.416 L 208.842 38.416 C 199.546 38.416 193.946 45.248 193.946 55.776 L 193.946 83.664 L 179.386 83.664 Z" fill="currentColor" fill-rule="nonzero"></path>
  <path d="M 249.005 83.664 C 236.797 83.664 229.405 76.72 229.405 64.064 L 229.405 36.4 L 219.437 36.4 L 219.437 24.864 L 226.045 24.864 C 228.621 24.864 230.301 23.184 230.301 20.384 L 230.301 8.512 L 243.965 8.512 L 243.965 24.752 L 260.205 24.752 L 260.205 36.4 L 243.965 36.4 L 243.965 63.504 C 243.965 68.432 246.429 71.568 252.029 71.568 L 259.869 71.568 L 259.869 83.664 L 249.005 83.664 Z" fill="currentColor" fill-rule="nonzero"></path>
  <path d="M 294.082 85.12 C 276.722 85.12 264.402 72.128 264.402 54.544 C 264.402 35.952 276.834 23.296 294.082 23.296 C 313.01 23.296 323.314 37.296 323.314 53.872 L 323.314 58.464 L 278.514 58.464 C 278.962 67.424 285.122 73.472 294.53 73.472 C 301.698 73.472 307.186 70.112 309.202 65.296 L 322.754 65.296 C 319.842 77.28 309.314 85.12 294.082 85.12 Z M 278.738 48.16 L 309.426 48.16 C 308.754 40.208 302.594 34.944 294.082 34.944 C 285.906 34.944 279.634 40.768 278.738 48.16 Z" fill="currentColor" fill-rule="nonzero"></path>
  <path d="M 331.759 83.664 L 331.759 24.752 L 345.535 24.752 L 345.535 34.384 L 346.431 34.384 C 348.335 29.792 353.711 24.528 361.887 24.528 L 367.263 24.528 L 367.263 38.416 L 361.215 38.416 C 351.919 38.416 346.319 45.248 346.319 55.776 L 346.319 83.664 L 331.759 83.664 Z" fill="currentColor" fill-rule="nonzero"></path>
  <path d="M 462.503 83.664 L 445.143 83.664 L 424.759 48.832 L 415.911 59.136 L 415.911 83.664 L 401.015 83.664 L 401.015 5.264 L 415.911 5.264 L 415.911 38.304 L 416.583 38.304 L 443.351 5.264 L 461.831 5.264 L 434.951 36.848 L 462.503 83.664 Z" fill="currentColor" fill-rule="nonzero"></path>
  <path d="M 475.88 16.912 C 470.616 16.912 466.92 13.664 466.92 8.4 C 466.92 3.36 470.616 0 475.88 0 C 481.144 0 484.84 3.36 484.84 8.4 C 484.84 13.664 481.144 16.912 475.88 16.912 Z M 468.6 83.664 L 468.6 24.752 L 483.16 24.752 L 483.16 83.664 L 468.6 83.664 Z" fill="currentColor" fill-rule="nonzero"></path>
  <path d="M 519.078 83.664 C 506.87 83.664 499.478 76.72 499.478 64.064 L 499.478 36.4 L 489.51 36.4 L 489.51 24.864 L 496.118 24.864 C 498.694 24.864 500.374 23.184 500.374 20.384 L 500.374 8.512 L 514.038 8.512 L 514.038 24.752 L 530.278 24.752 L 530.278 36.4 L 514.038 36.4 L 514.038 63.504 C 514.038 68.432 516.502 71.568 522.102 71.568 L 529.942 71.568 L 529.942 83.664 L 519.078 83.664 Z" fill="currentColor" fill-rule="nonzero"></path>
</svg>