<svg xmlns="http://www.w3.org/2000/svg" width="1133.216" height="201.498" viewBox="0 0 1133.216 201.498" fill="none">
  <path d="M 36.728 152.189 L 0 10.146 L 29.423 10.146 L 52.759 112.214 L 54.382 112.214 L 79.138 10.146 L 112.417 10.146 L 137.173 112.214 L 138.594 112.214 L 162.132 10.146 L 191.352 10.146 L 154.624 152.189 L 122.157 152.189 L 96.386 48.295 L 94.966 48.295 L 69.195 152.189 L 36.728 152.189 Z" fill="currentColor" fill-rule="nonzero"></path>
  <path d="M 212.386 31.25 C 202.849 31.25 196.153 25.365 196.153 15.828 C 196.153 6.696 202.849 0.609 212.386 0.609 C 221.923 0.609 228.62 6.696 228.62 15.828 C 228.62 25.365 221.923 31.25 212.386 31.25 Z M 199.197 152.189 L 199.197 45.454 L 225.576 45.454 L 225.576 152.189 L 199.197 152.189 Z" fill="currentColor" fill-rule="nonzero"></path>
  <path d="M 242.356 152.189 L 242.356 45.454 L 267.315 45.454 L 267.315 62.905 L 268.939 62.905 C 272.388 54.585 282.129 45.048 296.942 45.048 L 306.682 45.048 L 306.682 70.21 L 295.724 70.21 C 278.882 70.21 268.736 82.588 268.736 101.662 L 268.736 152.189 L 242.356 152.189 Z" fill="currentColor" fill-rule="nonzero"></path>
  <path d="M 362.714 154.827 C 331.262 154.827 308.941 131.289 308.941 99.43 C 308.941 65.746 331.465 42.816 362.714 42.816 C 397.008 42.816 415.676 68.181 415.676 98.213 L 415.676 106.532 L 334.509 106.532 C 335.32 122.766 346.481 133.724 363.526 133.724 C 376.513 133.724 386.456 127.636 390.108 118.91 L 414.661 118.91 C 409.386 140.623 390.311 154.827 362.714 154.827 Z M 334.914 87.864 L 390.514 87.864 C 389.297 73.457 378.136 63.919 362.714 63.919 C 347.901 63.919 336.538 74.471 334.914 87.864 Z" fill="currentColor" fill-rule="nonzero"></path>
  <path d="M 437.875 152.189 L 437.875 66.557 L 419.612 66.557 L 419.612 45.454 L 438.484 45.454 L 438.484 36.931 C 438.484 14.001 454.514 0 477.647 0 L 491.446 0 L 491.446 21.915 L 480.285 21.915 C 468.922 21.915 464.052 28.814 464.052 37.743 L 464.052 45.454 L 492.257 45.454 L 492.257 66.557 L 464.255 66.557 L 464.255 152.189 L 437.875 152.189 Z" fill="currentColor" fill-rule="nonzero"></path>
  <path d="M 505.596 152.189 L 505.596 45.454 L 530.555 45.454 L 530.555 62.905 L 532.179 62.905 C 535.628 54.585 545.368 45.048 560.181 45.048 L 569.921 45.048 L 569.921 70.21 L 558.964 70.21 C 542.122 70.21 531.976 82.588 531.976 101.662 L 531.976 152.189 L 505.596 152.189 Z" fill="currentColor" fill-rule="nonzero"></path>
  <path d="M 622.504 154.827 C 592.675 154.827 572.18 132.506 572.18 99.43 C 572.18 65.949 592.472 42.816 621.693 42.816 C 640.158 42.816 650.507 53.774 654.16 59.252 L 655.58 59.252 L 655.58 45.454 L 681.96 45.454 L 681.96 152.189 L 655.986 152.189 L 655.986 138.594 L 654.565 138.594 C 651.522 143.058 641.985 154.827 622.504 154.827 Z M 627.577 131.086 C 645.231 131.086 656.189 116.881 656.189 99.024 C 656.189 78.935 644.014 66.76 627.374 66.76 C 610.532 66.76 598.966 80.153 598.966 99.024 C 598.966 118.302 610.532 131.086 627.577 131.086 Z" fill="currentColor" fill-rule="nonzero"></path>
  <path d="M 698.726 152.189 L 698.726 45.454 L 723.888 45.454 L 723.888 58.441 L 725.308 58.441 C 729.975 50.324 739.715 42.816 754.326 42.816 C 768.936 42.816 779.893 49.106 785.981 59.049 L 787.604 59.049 C 794.909 47.889 805.461 42.816 819.26 42.816 C 842.798 42.816 858.22 58.846 858.22 81.37 L 858.22 152.189 L 831.84 152.189 L 831.84 90.502 C 831.84 75.892 825.144 67.572 812.563 67.572 C 800.591 67.572 791.865 76.703 791.865 91.111 L 791.865 152.189 L 765.486 152.189 L 765.486 88.878 C 765.486 75.892 757.775 67.572 745.6 67.572 C 733.831 67.572 725.105 77.312 725.105 90.908 L 725.105 152.189 L 698.726 152.189 Z" fill="currentColor" fill-rule="nonzero"></path>
  <path d="M 888.241 31.25 C 878.704 31.25 872.007 25.365 872.007 15.828 C 872.007 6.696 878.704 0.609 888.241 0.609 C 897.778 0.609 904.474 6.696 904.474 15.828 C 904.474 25.365 897.778 31.25 888.241 31.25 Z M 875.051 152.189 L 875.051 45.454 L 901.431 45.454 L 901.431 152.189 L 875.051 152.189 Z" fill="currentColor" fill-rule="nonzero"></path>
  <path d="M 918.211 152.189 L 918.211 45.454 L 943.373 45.454 L 943.373 58.441 L 944.793 58.441 C 949.055 50.527 959.606 42.816 974.825 42.816 C 998.77 42.816 1013.38 59.658 1013.38 82.385 L 1013.38 152.189 L 987 152.189 L 987 89.284 C 987 76.297 978.681 67.572 966.506 67.572 C 953.722 67.572 944.59 77.718 944.59 91.111 L 944.59 152.189 L 918.211 152.189 Z" fill="currentColor" fill-rule="nonzero"></path>
  <path d="M 1078.834 201.498 C 1047.99 201.498 1031.351 184.047 1029.525 164.161 L 1053.875 164.161 C 1055.904 173.699 1064.427 179.786 1078.834 179.786 C 1097.908 179.786 1107.243 169.64 1107.243 151.377 L 1107.243 137.579 L 1105.619 137.579 C 1102.575 142.449 1092.632 153.813 1073.558 153.813 C 1044.744 153.813 1023.437 132.303 1023.437 98.416 C 1023.437 64.731 1044.338 42.816 1072.746 42.816 C 1091.618 42.816 1102.17 53.976 1105.416 59.252 L 1107.04 59.252 L 1107.04 45.454 L 1133.216 45.454 L 1133.216 151.377 C 1133.216 180.395 1114.953 201.498 1078.834 201.498 Z M 1078.834 130.071 C 1096.488 130.071 1107.446 116.475 1107.446 98.416 C 1107.446 78.53 1095.27 66.76 1078.631 66.76 C 1061.789 66.76 1050.222 79.544 1050.222 98.416 C 1050.222 117.896 1061.789 130.071 1078.834 130.071 Z" fill="currentColor" fill-rule="nonzero"></path>
</svg>