<svg xmlns="http://www.w3.org/2000/svg" width="300.714" height="27.904" viewBox="0 0 300.714 27.904" fill="none">
  <path d="M 5.086 21.075 L 0 1.405 L 4.075 1.405 L 7.306 15.54 L 7.531 15.54 L 10.959 1.405 L 15.568 1.405 L 18.996 15.54 L 19.193 15.54 L 22.452 1.405 L 26.499 1.405 L 21.413 21.075 L 16.917 21.075 L 13.348 6.688 L 13.151 6.688 L 9.582 21.075 L 5.086 21.075 Z" fill="currentColor" fill-rule="nonzero"></path>
  <path d="M 29.693 4.327 C 28.372 4.327 27.445 3.513 27.445 2.192 C 27.445 0.927 28.372 0.084 29.693 0.084 C 31.013 0.084 31.941 0.927 31.941 2.192 C 31.941 3.513 31.013 4.327 29.693 4.327 Z M 27.866 21.075 L 27.866 6.295 L 31.519 6.295 L 31.519 21.075 L 27.866 21.075 Z" fill="currentColor" fill-rule="nonzero"></path>
  <path d="M 34.124 21.075 L 34.124 6.295 L 37.58 6.295 L 37.58 8.711 L 37.805 8.711 C 38.283 7.559 39.632 6.238 41.683 6.238 L 43.032 6.238 L 43.032 9.723 L 41.514 9.723 C 39.182 9.723 37.777 11.437 37.777 14.078 L 37.777 21.075 L 34.124 21.075 Z" fill="currentColor" fill-rule="nonzero"></path>
  <path d="M 51.072 21.441 C 46.717 21.441 43.626 18.181 43.626 13.769 C 43.626 9.105 46.745 5.929 51.072 5.929 C 55.821 5.929 58.407 9.442 58.407 13.601 L 58.407 14.753 L 47.166 14.753 C 47.279 17.001 48.824 18.518 51.185 18.518 C 52.983 18.518 54.36 17.675 54.866 16.467 L 58.266 16.467 C 57.536 19.474 54.894 21.441 51.072 21.441 Z M 47.223 12.168 L 54.922 12.168 C 54.754 10.172 53.208 8.852 51.072 8.852 C 49.021 8.852 47.447 10.313 47.223 12.168 Z" fill="currentColor" fill-rule="nonzero"></path>
  <path d="M 61.762 21.075 L 61.762 9.217 L 59.233 9.217 L 59.233 6.295 L 61.846 6.295 L 61.846 5.114 C 61.846 1.939 64.066 0 67.27 0 L 69.18 0 L 69.18 3.035 L 67.635 3.035 C 66.061 3.035 65.387 3.99 65.387 5.227 L 65.387 6.295 L 69.293 6.295 L 69.293 9.217 L 65.415 9.217 L 65.415 21.075 L 61.762 21.075 Z" fill="currentColor" fill-rule="nonzero"></path>
  <path d="M 71.421 21.075 L 71.421 6.295 L 74.877 6.295 L 74.877 8.711 L 75.102 8.711 C 75.58 7.559 76.929 6.238 78.98 6.238 L 80.329 6.238 L 80.329 9.723 L 78.811 9.723 C 76.479 9.723 75.074 11.437 75.074 14.078 L 75.074 21.075 L 71.421 21.075 Z" fill="currentColor" fill-rule="nonzero"></path>
  <path d="M 87.892 21.441 C 83.761 21.441 80.923 18.35 80.923 13.769 C 80.923 9.133 83.733 5.929 87.779 5.929 C 90.336 5.929 91.77 7.447 92.275 8.205 L 92.472 8.205 L 92.472 6.295 L 96.125 6.295 L 96.125 21.075 L 92.528 21.075 L 92.528 19.193 L 92.332 19.193 C 91.91 19.811 90.589 21.441 87.892 21.441 Z M 88.594 18.153 C 91.039 18.153 92.556 16.186 92.556 13.713 C 92.556 10.931 90.87 9.245 88.566 9.245 C 86.234 9.245 84.632 11.1 84.632 13.713 C 84.632 16.383 86.234 18.153 88.594 18.153 Z" fill="currentColor" fill-rule="nonzero"></path>
  <path d="M 98.728 21.075 L 98.728 6.295 L 102.213 6.295 L 102.213 8.093 L 102.409 8.093 C 103.056 6.969 104.404 5.929 106.428 5.929 C 108.451 5.929 109.968 6.8 110.811 8.177 L 111.036 8.177 C 112.048 6.632 113.509 5.929 115.42 5.929 C 118.679 5.929 120.815 8.149 120.815 11.268 L 120.815 21.075 L 117.162 21.075 L 117.162 12.533 C 117.162 10.51 116.235 9.358 114.492 9.358 C 112.835 9.358 111.626 10.622 111.626 12.617 L 111.626 21.075 L 107.973 21.075 L 107.973 12.308 C 107.973 10.51 106.905 9.358 105.219 9.358 C 103.589 9.358 102.381 10.706 102.381 12.589 L 102.381 21.075 L 98.728 21.075 Z" fill="currentColor" fill-rule="nonzero"></path>
  <path d="M 125.253 4.327 C 123.933 4.327 123.005 3.513 123.005 2.192 C 123.005 0.927 123.933 0.084 125.253 0.084 C 126.574 0.084 127.502 0.927 127.502 2.192 C 127.502 3.513 126.574 4.327 125.253 4.327 Z M 123.427 21.075 L 123.427 6.295 L 127.08 6.295 L 127.08 21.075 L 123.427 21.075 Z" fill="currentColor" fill-rule="nonzero"></path>
  <path d="M 129.685 21.075 L 129.685 6.295 L 133.169 6.295 L 133.169 8.093 L 133.366 8.093 C 133.956 6.997 135.417 5.929 137.525 5.929 C 140.841 5.929 142.864 8.262 142.864 11.409 L 142.864 21.075 L 139.211 21.075 L 139.211 12.364 C 139.211 10.566 138.059 9.358 136.373 9.358 C 134.602 9.358 133.338 10.763 133.338 12.617 L 133.338 21.075 L 129.685 21.075 Z" fill="currentColor" fill-rule="nonzero"></path>
  <path d="M 152.209 27.904 C 147.938 27.904 145.634 25.487 145.381 22.733 L 148.753 22.733 C 149.034 24.054 150.214 24.897 152.209 24.897 C 154.851 24.897 156.143 23.492 156.143 20.963 L 156.143 19.052 L 155.919 19.052 C 155.497 19.727 154.12 21.3 151.479 21.3 C 147.488 21.3 144.538 18.322 144.538 13.629 C 144.538 8.964 147.432 5.929 151.366 5.929 C 153.98 5.929 155.441 7.475 155.89 8.205 L 156.115 8.205 L 156.115 6.295 L 159.74 6.295 L 159.74 20.963 C 159.74 24.981 157.211 27.904 152.209 27.904 Z M 152.209 18.013 C 154.654 18.013 156.171 16.13 156.171 13.629 C 156.171 10.875 154.485 9.245 152.181 9.245 C 149.849 9.245 148.247 11.015 148.247 13.629 C 148.247 16.326 149.849 18.013 152.209 18.013 Z" fill="currentColor" fill-rule="nonzero"></path>
  <path d="M 175.143 21.441 C 170.647 21.441 167.668 18.771 167.668 14.865 L 171.293 14.865 C 171.321 16.636 172.783 18.013 175.255 18.013 C 177.363 18.013 178.712 17.113 178.712 15.624 C 178.712 11.128 168.258 14.753 168.258 6.716 C 168.258 3.597 170.731 1.04 175.059 1.04 C 178.796 1.04 181.972 3.007 182.084 7.109 L 178.347 7.109 C 178.318 5.48 177.166 4.384 175.059 4.384 C 172.979 4.384 171.968 5.423 171.968 6.66 C 171.968 10.763 182.562 7.39 182.562 15.343 C 182.562 18.827 179.864 21.441 175.143 21.441 Z" fill="currentColor" fill-rule="nonzero"></path>
  <path d="M 191.008 21.075 C 187.945 21.075 186.09 19.333 186.09 16.158 L 186.09 9.217 L 183.589 9.217 L 183.589 6.323 L 185.247 6.323 C 185.893 6.323 186.315 5.901 186.315 5.199 L 186.315 2.22 L 189.743 2.22 L 189.743 6.295 L 193.818 6.295 L 193.818 9.217 L 189.743 9.217 L 189.743 16.017 C 189.743 17.254 190.361 18.041 191.766 18.041 L 193.733 18.041 L 193.733 21.075 L 191.008 21.075 Z" fill="currentColor" fill-rule="nonzero"></path>
  <path d="M 201.84 21.441 C 197.709 21.441 194.871 18.35 194.871 13.769 C 194.871 9.133 197.681 5.929 201.727 5.929 C 204.285 5.929 205.718 7.447 206.223 8.205 L 206.42 8.205 L 206.42 6.295 L 210.073 6.295 L 210.073 21.075 L 206.476 21.075 L 206.476 19.193 L 206.28 19.193 C 205.858 19.811 204.537 21.441 201.84 21.441 Z M 202.542 18.153 C 204.987 18.153 206.504 16.186 206.504 13.713 C 206.504 10.931 204.818 9.245 202.514 9.245 C 200.182 9.245 198.58 11.1 198.58 13.713 C 198.58 16.383 200.182 18.153 202.542 18.153 Z" fill="currentColor" fill-rule="nonzero"></path>
  <path d="M 212.676 21.075 L 212.676 6.295 L 216.132 6.295 L 216.132 8.711 L 216.357 8.711 C 216.835 7.559 218.184 6.238 220.235 6.238 L 221.584 6.238 L 221.584 9.723 L 220.067 9.723 C 217.734 9.723 216.329 11.437 216.329 14.078 L 216.329 21.075 L 212.676 21.075 Z" fill="currentColor" fill-rule="nonzero"></path>
  <path d="M 230.143 21.075 C 227.08 21.075 225.226 19.333 225.226 16.158 L 225.226 9.217 L 222.725 9.217 L 222.725 6.323 L 224.383 6.323 C 225.029 6.323 225.45 5.901 225.45 5.199 L 225.45 2.22 L 228.879 2.22 L 228.879 6.295 L 232.953 6.295 L 232.953 9.217 L 228.879 9.217 L 228.879 16.017 C 228.879 17.254 229.497 18.041 230.902 18.041 L 232.869 18.041 L 232.869 21.075 L 230.143 21.075 Z" fill="currentColor" fill-rule="nonzero"></path>
  <path d="M 241.453 21.441 C 237.098 21.441 234.006 18.181 234.006 13.769 C 234.006 9.105 237.126 5.929 241.453 5.929 C 246.202 5.929 248.787 9.442 248.787 13.601 L 248.787 14.753 L 237.547 14.753 C 237.66 17.001 239.205 18.518 241.566 18.518 C 243.364 18.518 244.741 17.675 245.247 16.467 L 248.647 16.467 C 247.916 19.474 245.275 21.441 241.453 21.441 Z M 237.603 12.168 L 245.303 12.168 C 245.134 10.172 243.589 8.852 241.453 8.852 C 239.402 8.852 237.828 10.313 237.603 12.168 Z" fill="currentColor" fill-rule="nonzero"></path>
  <path d="M 250.906 21.075 L 250.906 6.295 L 254.362 6.295 L 254.362 8.711 L 254.587 8.711 C 255.065 7.559 256.414 6.238 258.465 6.238 L 259.814 6.238 L 259.814 9.723 L 258.297 9.723 C 255.964 9.723 254.559 11.437 254.559 14.078 L 254.559 21.075 L 250.906 21.075 Z" fill="currentColor" fill-rule="nonzero"></path>
  <path d="M 283.71 21.075 L 279.354 21.075 L 274.24 12.336 L 272.02 14.921 L 272.02 21.075 L 268.282 21.075 L 268.282 1.405 L 272.02 1.405 L 272.02 9.695 L 272.188 9.695 L 278.904 1.405 L 283.541 1.405 L 276.797 9.329 L 283.71 21.075 Z" fill="currentColor" fill-rule="nonzero"></path>
  <path d="M 287.066 4.327 C 285.745 4.327 284.818 3.513 284.818 2.192 C 284.818 0.927 285.745 0.084 287.066 0.084 C 288.387 0.084 289.314 0.927 289.314 2.192 C 289.314 3.513 288.387 4.327 287.066 4.327 Z M 285.239 21.075 L 285.239 6.295 L 288.892 6.295 L 288.892 21.075 L 285.239 21.075 Z" fill="currentColor" fill-rule="nonzero"></path>
  <path d="M 297.904 21.075 C 294.841 21.075 292.987 19.333 292.987 16.158 L 292.987 9.217 L 290.486 9.217 L 290.486 6.323 L 292.144 6.323 C 292.79 6.323 293.211 5.901 293.211 5.199 L 293.211 2.22 L 296.64 2.22 L 296.64 6.295 L 300.714 6.295 L 300.714 9.217 L 296.64 9.217 L 296.64 16.017 C 296.64 17.254 297.258 18.041 298.663 18.041 L 300.63 18.041 L 300.63 21.075 L 297.904 21.075 Z" fill="currentColor" fill-rule="nonzero"></path>
</svg>