<svg xmlns="http://www.w3.org/2000/svg" width="16" height="16" viewBox="0 0 16 16" fill="none">
  <path d="M 9 0 C 9 -0.552 8.552 -1 8 -1 C 7.448 -1 7 -0.552 7 0 L 9 0 Z M 3 0 C 3 -0.552 2.552 -1 2 -1 C 1.448 -1 1 -0.552 1 0 L 3 0 Z M 7 16 C 7 16.552 7.448 17 8 17 C 8.552 17 9 16.552 9 16 L 7 16 Z M 15 0 C 15 -0.552 14.552 -1 14 -1 C 13.448 -1 13 -0.552 13 0 L 15 0 Z M 1 16 C 1 16.552 1.448 17 2 17 C 2.552 17 3 16.552 3 16 L 1 16 Z M 13 16 C 13 16.552 13.448 17 14 17 C 14.552 17 15 16.552 15 16 L 13 16 Z M 9 2 L 9 0 L 7 0 L 7 2 L 9 2 Z M 3 12 C 3 12.552 2.552 13 2 13 L 2 15 C 3.657 15 5 13.657 5 12 L 3 12 Z M 2 13 C 1.448 13 1 12.552 1 12 L -1 12 C -1 13.657 0.343 15 2 15 L 2 13 Z M 1 12 C 1 11.448 1.448 11 2 11 L 2 9 C 0.343 9 -1 10.343 -1 12 L 1 12 Z M 2 11 C 2.552 11 3 11.448 3 12 L 5 12 C 5 10.343 3.657 9 2 9 L 2 11 Z M 9 4 C 9 4.552 8.552 5 8 5 L 8 7 C 9.657 7 11 5.657 11 4 L 9 4 Z M 8 5 C 7.448 5 7 4.552 7 4 L 5 4 C 5 5.657 6.343 7 8 7 L 8 5 Z M 7 4 C 7 3.448 7.448 3 8 3 L 8 1 C 6.343 1 5 2.343 5 4 L 7 4 Z M 8 3 C 8.552 3 9 3.448 9 4 L 11 4 C 11 2.343 9.657 1 8 1 L 8 3 Z M 15 12 C 15 12.552 14.552 13 14 13 L 14 15 C 15.657 15 17 13.657 17 12 L 15 12 Z M 14 13 C 13.448 13 13 12.552 13 12 L 11 12 C 11 13.657 12.343 15 14 15 L 14 13 Z M 13 12 C 13 11.448 13.448 11 14 11 L 14 9 C 12.343 9 11 10.343 11 12 L 13 12 Z M 14 11 C 14.552 11 15 11.448 15 12 L 17 12 C 17 10.343 15.657 9 14 9 L 14 11 Z M 3 10 L 3 0 L 1 0 L 1 10 L 3 10 Z M 9 16 L 9 6 L 7 6 L 7 16 L 9 16 Z M 15 10 L 15 0 L 13 0 L 13 10 L 15 10 Z M 3 16 L 3 14 L 1 14 L 1 16 L 3 16 Z M 15 16 L 15 14 L 13 14 L 13 16 L 15 16 Z" fill="currentColor" fill-rule="nonzero"></path>
</svg>