<svg xmlns="http://www.w3.org/2000/svg" width="18" height="14" viewBox="0 0 18 14" fill="none">
  <path d="M 11.707 -0.707 C 11.317 -1.098 10.683 -1.098 10.293 -0.707 C 9.902 -0.317 9.902 0.317 10.293 0.707 L 11.707 -0.707 Z M 18 7 L 18.707 7.707 C 18.895 7.52 19 7.265 19 7 C 19 6.735 18.895 6.48 18.707 6.293 L 18 7 Z M 10.293 13.293 C 9.902 13.683 9.902 14.317 10.293 14.707 C 10.683 15.098 11.317 15.098 11.707 14.707 L 10.293 13.293 Z M 0 6 C -0.552 6 -1 6.448 -1 7 C -1 7.552 -0.552 8 0 8 L 0 6 Z M 10.293 0.707 L 17.293 7.707 L 18.707 6.293 L 11.707 -0.707 L 10.293 0.707 Z M 17.293 6.293 L 10.293 13.293 L 11.707 14.707 L 18.707 7.707 L 17.293 6.293 Z M 18 6 L 0 6 L 0 8 L 18 8 L 18 6 Z" fill="currentColor" fill-rule="nonzero"></path>
</svg>