<svg xmlns="http://www.w3.org/2000/svg" width="18" height="14" viewBox="0 0 18 14" fill="none">
  <path d="M 6.293 14.707 C 6.683 15.098 7.317 15.098 7.707 14.707 C 8.098 14.317 8.098 13.683 7.707 13.293 L 6.293 14.707 Z M 0 7 L -0.707 6.293 C -1.098 6.683 -1.098 7.317 -0.707 7.707 L 0 7 Z M 7.707 0.707 C 8.098 0.317 8.098 -0.317 7.707 -0.707 C 7.317 -1.098 6.683 -1.098 6.293 -0.707 L 7.707 0.707 Z M 18 8 C 18.552 8 19 7.552 19 7 C 19 6.448 18.552 6 18 6 L 18 8 Z M 7.707 13.293 L 0.707 6.293 L -0.707 7.707 L 6.293 14.707 L 7.707 13.293 Z M 0.707 7.707 L 7.707 0.707 L 6.293 -0.707 L -0.707 6.293 L 0.707 7.707 Z M 0 8 L 18 8 L 18 6 L 0 6 L 0 8 Z" fill="currentColor" fill-rule="nonzero"></path>
</svg>