<svg xmlns="http://www.w3.org/2000/svg" width="16" height="18" viewBox="0 0 16 18" fill="none">
  <path d="M 16 14 L 16 15 C 16.404 15 16.769 14.756 16.924 14.383 C 17.079 14.009 16.993 13.579 16.707 13.293 L 16 14 Z M 0 14 L -0.707 13.293 C -0.993 13.579 -1.079 14.009 -0.924 14.383 C -0.769 14.756 -0.404 15 0 15 L 0 14 Z M 1.405 12.595 L 2.112 13.302 L 2.112 13.302 L 1.405 12.595 Z M 6 2.341 L 6.333 3.284 C 6.733 3.143 7 2.765 7 2.341 L 6 2.341 Z M 10 2.341 L 9 2.341 C 9 2.765 9.267 3.143 9.667 3.284 L 10 2.341 Z M 0.707 14.707 L 2.112 13.302 L 0.698 11.888 L -0.707 13.293 L 0.707 14.707 Z M 3 11.158 L 3 8 L 1 8 L 1 11.158 L 3 11.158 Z M 13 8 L 13 11.158 L 15 11.158 L 15 8 L 13 8 Z M 13.888 13.302 L 15.293 14.707 L 16.707 13.293 L 15.302 11.888 L 13.888 13.302 Z M 2.112 13.302 C 2.681 12.734 3 11.963 3 11.158 L 1 11.158 C 1 11.432 0.891 11.694 0.698 11.888 L 2.112 13.302 Z M 13 11.158 C 13 11.963 13.319 12.734 13.888 13.302 L 15.302 11.888 C 15.109 11.694 15 11.432 15 11.158 L 13 11.158 Z M 5.667 1.399 C 2.949 2.359 1 4.951 1 8 L 3 8 C 3 5.825 4.39 3.971 6.333 3.284 L 5.667 1.399 Z M 9.667 3.284 C 11.61 3.971 13 5.825 13 8 L 15 8 C 15 4.951 13.051 2.359 10.333 1.399 L 9.667 3.284 Z M 11 2.341 L 11 2 L 9 2 L 9 2.341 L 11 2.341 Z M 5 2 L 5 2.341 L 7 2.341 L 7 2 L 5 2 Z M 8 -1 C 6.343 -1 5 0.343 5 2 L 7 2 C 7 1.448 7.448 1 8 1 L 8 -1 Z M 11 2 C 11 0.343 9.657 -1 8 -1 L 8 1 C 8.552 1 9 1.448 9 2 L 11 2 Z M 10 15 C 10 16.105 9.105 17 8 17 L 8 19 C 10.209 19 12 17.209 12 15 L 10 15 Z M 8 17 C 6.895 17 6 16.105 6 15 L 4 15 C 4 17.209 5.791 19 8 19 L 8 17 Z M 16 13 L 11 13 L 11 15 L 16 15 L 16 13 Z M 12 15 L 12 14 L 10 14 L 10 15 L 12 15 Z M 11 13 L 5 13 L 5 15 L 11 15 L 11 13 Z M 5 13 L 0 13 L 0 15 L 5 15 L 5 13 Z M 6 15 L 6 14 L 4 14 L 4 15 L 6 15 Z" fill="currentColor" fill-rule="nonzero"></path>
</svg>