<svg xmlns="http://www.w3.org/2000/svg" width="14" height="18" viewBox="0 0 14 18" fill="none">
  <path d="M 14 18 L 13.553 18.894 C 13.863 19.049 14.231 19.033 14.526 18.851 C 14.821 18.668 15 18.347 15 18 L 14 18 Z M 0 18 L -1 18 C -1 18.347 -0.821 18.668 -0.526 18.851 C -0.231 19.033 0.137 19.049 0.447 18.894 L 0 18 Z M 7 14.5 L 7.447 13.606 C 7.166 13.465 6.834 13.465 6.553 13.606 L 7 14.5 Z M 2 1 L 12 1 L 12 -1 L 2 -1 L 2 1 Z M 13 2 L 13 18 L 15 18 L 15 2 L 13 2 Z M 1 18 L 1 2 L -1 2 L -1 18 L 1 18 Z M 14.447 17.106 L 7.447 13.606 L 6.553 15.394 L 13.553 18.894 L 14.447 17.106 Z M 6.553 13.606 L -0.447 17.106 L 0.447 18.894 L 7.447 15.394 L 6.553 13.606 Z M 12 1 C 12.552 1 13 1.448 13 2 L 15 2 C 15 0.343 13.657 -1 12 -1 L 12 1 Z M 2 -1 C 0.343 -1 -1 0.343 -1 2 L 1 2 C 1 1.448 1.448 1 2 1 L 2 -1 Z" fill="currentColor" fill-rule="nonzero"></path>
</svg>