<svg xmlns="http://www.w3.org/2000/svg" width="18" height="18" viewBox="0 0 18 18" fill="none">
  <path d="M 4 4 C 4 4.552 4.448 5 5 5 C 5.552 5 6 4.552 6 4 L 4 4 Z M 6 0 C 6 -0.552 5.552 -1 5 -1 C 4.448 -1 4 -0.552 4 0 L 6 0 Z M 12 4 C 12 4.552 12.448 5 13 5 C 13.552 5 14 4.552 14 4 L 12 4 Z M 14 0 C 14 -0.552 13.552 -1 13 -1 C 12.448 -1 12 -0.552 12 0 L 14 0 Z M 4 7 C 3.448 7 3 7.448 3 8 C 3 8.552 3.448 9 4 9 L 4 7 Z M 14 9 C 14.552 9 15 8.552 15 8 C 15 7.448 14.552 7 14 7 L 14 9 Z M 2 3 L 16 3 L 16 1 L 2 1 L 2 3 Z M 17 4 L 17 16 L 19 16 L 19 4 L 17 4 Z M 16 17 L 2 17 L 2 19 L 16 19 L 16 17 Z M 1 16 L 1 4 L -1 4 L -1 16 L 1 16 Z M 2 17 C 1.448 17 1 16.552 1 16 L -1 16 C -1 17.657 0.343 19 2 19 L 2 17 Z M 17 16 C 17 16.552 16.552 17 16 17 L 16 19 C 17.657 19 19 17.657 19 16 L 17 16 Z M 16 3 C 16.552 3 17 3.448 17 4 L 19 4 C 19 2.343 17.657 1 16 1 L 16 3 Z M 2 1 C 0.343 1 -1 2.343 -1 4 L 1 4 C 1 3.448 1.448 3 2 3 L 2 1 Z M 6 4 L 6 0 L 4 0 L 4 4 L 6 4 Z M 14 4 L 14 0 L 12 0 L 12 4 L 14 4 Z M 4 9 L 14 9 L 14 7 L 4 7 L 4 9 Z" fill="currentColor" fill-rule="nonzero"></path>
</svg>