<svg xmlns="http://www.w3.org/2000/svg" width="18" height="16" viewBox="0 0 18 16" fill="none">
  <path d="M 12.594 0.891 L 11.762 1.445 L 11.762 1.445 L 12.594 0.891 Z M 5.406 0.891 L 6.238 1.445 L 6.238 1.445 L 5.406 0.891 Z M 13.406 2.109 L 14.238 1.555 L 14.238 1.555 L 13.406 2.109 Z M 4.594 2.109 L 3.762 1.555 L 3.762 1.555 L 4.594 2.109 Z M 17 5 L 17 14 L 19 14 L 19 5 L 17 5 Z M 16 15 L 2 15 L 2 17 L 16 17 L 16 15 Z M 1 14 L 1 5 L -1 5 L -1 14 L 1 14 Z M 2 4 L 2.93 4 L 2.93 2 L 2 2 L 2 4 Z M 15.07 4 L 16 4 L 16 2 L 15.07 2 L 15.07 4 Z M 5.426 2.664 L 6.238 1.445 L 4.574 0.336 L 3.762 1.555 L 5.426 2.664 Z M 7.07 1 L 10.93 1 L 10.93 -1 L 7.07 -1 L 7.07 1 Z M 11.762 1.445 L 12.574 2.664 L 14.238 1.555 L 13.426 0.336 L 11.762 1.445 Z M 10.93 1 C 11.264 1 11.576 1.167 11.762 1.445 L 13.426 0.336 C 12.869 -0.499 11.933 -1 10.93 -1 L 10.93 1 Z M 6.238 1.445 C 6.424 1.167 6.736 1 7.07 1 L 7.07 -1 C 6.067 -1 5.131 -0.499 4.574 0.336 L 6.238 1.445 Z M 15.07 2 C 14.736 2 14.424 1.833 14.238 1.555 L 12.574 2.664 C 13.131 3.499 14.067 4 15.07 4 L 15.07 2 Z M 2.93 4 C 3.933 4 4.869 3.499 5.426 2.664 L 3.762 1.555 C 3.576 1.833 3.264 2 2.93 2 L 2.93 4 Z M 2 15 C 1.448 15 1 14.552 1 14 L -1 14 C -1 15.657 0.343 17 2 17 L 2 15 Z M 17 14 C 17 14.552 16.552 15 16 15 L 16 17 C 17.657 17 19 15.657 19 14 L 17 14 Z M 19 5 C 19 3.343 17.657 2 16 2 L 16 4 C 16.552 4 17 4.448 17 5 L 19 5 Z M 1 5 C 1 4.448 1.448 4 2 4 L 2 2 C 0.343 2 -1 3.343 -1 5 L 1 5 Z M 11 9 C 11 10.105 10.105 11 9 11 L 9 13 C 11.209 13 13 11.209 13 9 L 11 9 Z M 9 11 C 7.895 11 7 10.105 7 9 L 5 9 C 5 11.209 6.791 13 9 13 L 9 11 Z M 7 9 C 7 7.895 7.895 7 9 7 L 9 5 C 6.791 5 5 6.791 5 9 L 7 9 Z M 9 7 C 10.105 7 11 7.895 11 9 L 13 9 C 13 6.791 11.209 5 9 5 L 9 7 Z" fill="currentColor" fill-rule="nonzero"></path>
</svg>