<svg xmlns="http://www.w3.org/2000/svg" width="18" height="17" viewBox="0 0 18 17" fill="none">
  <path d="M 6 12 L 7 12 C 7 11.448 6.552 11 6 11 L 6 12 Z M 6 17 L 5 17 C 5 17.404 5.244 17.769 5.617 17.924 C 5.991 18.079 6.421 17.993 6.707 17.707 L 6 17 Z M 11 12 L 11 11 C 10.735 11 10.48 11.105 10.293 11.293 L 11 12 Z M 5 5 C 4.448 5 4 5.448 4 6 C 4 6.552 4.448 7 5 7 L 5 5 Z M 5.01 7 C 5.562 7 6.01 6.552 6.01 6 C 6.01 5.448 5.562 5 5.01 5 L 5.01 7 Z M 9 5 C 8.448 5 8 5.448 8 6 C 8 6.552 8.448 7 9 7 L 9 5 Z M 9.01 7 C 9.562 7 10.01 6.552 10.01 6 C 10.01 5.448 9.562 5 9.01 5 L 9.01 7 Z M 13 5 C 12.448 5 12 5.448 12 6 C 12 6.552 12.448 7 13 7 L 13 5 Z M 13.01 7 C 13.562 7 14.01 6.552 14.01 6 C 14.01 5.448 13.562 5 13.01 5 L 13.01 7 Z M 2 1 L 16 1 L 16 -1 L 2 -1 L 2 1 Z M 17 2 L 17 10 L 19 10 L 19 2 L 17 2 Z M 1 10 L 1 2 L -1 2 L -1 10 L 1 10 Z M 6 11 L 2 11 L 2 13 L 6 13 L 6 11 Z M 7 17 L 7 12 L 5 12 L 5 17 L 7 17 Z M 16 11 L 11 11 L 11 13 L 16 13 L 16 11 Z M 10.293 11.293 L 5.293 16.293 L 6.707 17.707 L 11.707 12.707 L 10.293 11.293 Z M -1 10 C -1 11.657 0.343 13 2 13 L 2 11 C 1.448 11 1 10.552 1 10 L -1 10 Z M 17 10 C 17 10.552 16.552 11 16 11 L 16 13 C 17.657 13 19 11.657 19 10 L 17 10 Z M 16 1 C 16.552 1 17 1.448 17 2 L 19 2 C 19 0.343 17.657 -1 16 -1 L 16 1 Z M 2 -1 C 0.343 -1 -1 0.343 -1 2 L 1 2 C 1 1.448 1.448 1 2 1 L 2 -1 Z M 5 7 L 5.01 7 L 5.01 5 L 5 5 L 5 7 Z M 9 7 L 9.01 7 L 9.01 5 L 9 5 L 9 7 Z M 13 7 L 13.01 7 L 13.01 5 L 13 5 L 13 7 Z" fill="currentColor" fill-rule="nonzero"></path>
</svg>