<svg xmlns="http://www.w3.org/2000/svg" width="14" height="10" viewBox="0 0 14 10" fill="none">
  <path d="M 0.707 5.293 C 0.317 4.902 -0.317 4.902 -0.707 5.293 C -1.098 5.683 -1.098 6.317 -0.707 6.707 L 0.707 5.293 Z M 4 10 L 3.293 10.707 C 3.683 11.098 4.317 11.098 4.707 10.707 L 4 10 Z M 14.707 0.707 C 15.098 0.317 15.098 -0.317 14.707 -0.707 C 14.317 -1.098 13.683 -1.098 13.293 -0.707 L 14.707 0.707 Z M -0.707 6.707 L 3.293 10.707 L 4.707 9.293 L 0.707 5.293 L -0.707 6.707 Z M 4.707 10.707 L 14.707 0.707 L 13.293 -0.707 L 3.293 9.293 L 4.707 10.707 Z" fill="currentColor" fill-rule="nonzero"></path>
</svg>