<svg xmlns="http://www.w3.org/2000/svg" width="14" height="7" viewBox="0 0 14 7" fill="none">
  <path d="M 14.707 0.707 C 15.098 0.317 15.098 -0.317 14.707 -0.707 C 14.317 -1.098 13.683 -1.098 13.293 -0.707 L 14.707 0.707 Z M 7 7 L 6.293 7.707 C 6.683 8.098 7.317 8.098 7.707 7.707 L 7 7 Z M 0.707 -0.707 C 0.317 -1.098 -0.317 -1.098 -0.707 -0.707 C -1.098 -0.317 -1.098 0.317 -0.707 0.707 L 0.707 -0.707 Z M 13.293 -0.707 L 6.293 6.293 L 7.707 7.707 L 14.707 0.707 L 13.293 -0.707 Z M 7.707 6.293 L 0.707 -0.707 L -0.707 0.707 L 6.293 7.707 L 7.707 6.293 Z" fill="currentColor" fill-rule="nonzero"></path>
</svg>