<svg xmlns="http://www.w3.org/2000/svg" width="18" height="18" viewBox="0 0 18 18" fill="none">
  <path d="M 10 5 C 10 4.448 9.552 4 9 4 C 8.448 4 8 4.448 8 5 L 10 5 Z M 9 9 L 8 9 C 8 9.265 8.105 9.52 8.293 9.707 L 9 9 Z M 11.293 12.707 C 11.683 13.098 12.317 13.098 12.707 12.707 C 13.098 12.317 13.098 11.683 12.707 11.293 L 11.293 12.707 Z M 17 9 C 17 13.418 13.418 17 9 17 L 9 19 C 14.523 19 19 14.523 19 9 L 17 9 Z M 9 17 C 4.582 17 1 13.418 1 9 L -1 9 C -1 14.523 3.477 19 9 19 L 9 17 Z M 1 9 C 1 4.582 4.582 1 9 1 L 9 -1 C 3.477 -1 -1 3.477 -1 9 L 1 9 Z M 9 1 C 13.418 1 17 4.582 17 9 L 19 9 C 19 3.477 14.523 -1 9 -1 L 9 1 Z M 8 5 L 8 9 L 10 9 L 10 5 L 8 5 Z M 8.293 9.707 L 11.293 12.707 L 12.707 11.293 L 9.707 8.293 L 8.293 9.707 Z" fill="currentColor" fill-rule="nonzero"></path>
</svg>