<svg xmlns="http://www.w3.org/2000/svg" width="18" height="18" viewBox="0 0 18 18" fill="none">
  <path d="M 4.752 2.383 L 5.273 1.529 L 5.273 1.529 L 4.752 2.383 Z M 7.325 1.317 L 6.353 1.081 L 6.353 1.081 L 7.325 1.317 Z M 2.383 4.752 L 1.529 5.273 L 1.529 5.273 L 2.383 4.752 Z M 1.317 7.325 L 1.081 6.353 L 1.081 6.353 L 1.317 7.325 Z M 1.317 10.675 L 1.553 9.704 L 1.553 9.704 L 1.317 10.675 Z M 2.383 13.248 L 1.529 12.727 L 1.529 12.727 L 2.383 13.248 Z M 4.752 15.617 L 5.273 16.471 L 5.273 16.471 L 4.752 15.617 Z M 7.325 16.683 L 8.296 16.447 L 7.325 16.683 Z M 10.675 16.683 L 11.647 16.919 L 11.647 16.919 L 10.675 16.683 Z M 13.248 15.617 L 12.727 16.471 L 12.727 16.471 L 13.248 15.617 Z M 15.617 13.248 L 16.471 12.727 L 16.471 12.727 L 15.617 13.248 Z M 16.683 10.675 L 16.919 11.647 L 16.919 11.647 L 16.683 10.675 Z M 16.683 7.325 L 16.447 8.296 L 16.683 7.325 Z M 15.617 4.752 L 16.471 5.273 L 16.471 5.273 L 15.617 4.752 Z M 13.248 2.383 L 12.727 1.529 L 12.727 1.529 L 13.248 2.383 Z M 10.675 1.317 L 9.704 1.553 L 9.704 1.553 L 10.675 1.317 Z M 4.232 3.237 C 5.807 4.197 7.861 3.346 8.296 1.553 L 6.353 1.081 C 6.237 1.558 5.691 1.784 5.273 1.529 L 4.232 3.237 Z M 3.237 4.232 C 2.842 3.584 3.584 2.842 4.232 3.237 L 5.273 1.529 C 2.834 0.043 0.043 2.834 1.529 5.273 L 3.237 4.232 Z M 1.553 8.296 C 3.346 7.861 4.197 5.807 3.237 4.232 L 1.529 5.273 C 1.784 5.691 1.558 6.237 1.081 6.353 L 1.553 8.296 Z M 1.553 9.704 C 0.816 9.525 0.816 8.475 1.553 8.296 L 1.081 6.353 C -1.694 7.027 -1.694 10.973 1.081 11.647 L 1.553 9.704 Z M 3.237 13.768 C 4.197 12.193 3.346 10.139 1.553 9.704 L 1.081 11.647 C 1.558 11.763 1.784 12.309 1.529 12.727 L 3.237 13.768 Z M 4.232 14.763 C 3.584 15.158 2.842 14.416 3.237 13.768 L 1.529 12.727 C 0.043 15.166 2.834 17.957 5.273 16.471 L 4.232 14.763 Z M 8.296 16.447 C 7.861 14.654 5.807 13.803 4.232 14.763 L 5.273 16.471 C 5.691 16.216 6.237 16.442 6.353 16.919 L 8.296 16.447 Z M 9.704 16.447 C 9.525 17.184 8.475 17.184 8.296 16.447 L 6.353 16.919 C 7.027 19.694 10.973 19.694 11.647 16.919 L 9.704 16.447 Z M 13.768 14.763 C 12.193 13.803 10.139 14.654 9.704 16.447 L 11.647 16.919 C 11.763 16.442 12.309 16.216 12.727 16.471 L 13.768 14.763 Z M 14.763 13.768 C 15.158 14.416 14.416 15.158 13.768 14.763 L 12.727 16.471 C 15.166 17.957 17.957 15.166 16.471 12.727 L 14.763 13.768 Z M 16.447 9.704 C 14.654 10.139 13.803 12.193 14.763 13.768 L 16.471 12.727 C 16.216 12.309 16.442 11.763 16.919 11.647 L 16.447 9.704 Z M 16.447 8.296 C 17.184 8.475 17.184 9.525 16.447 9.704 L 16.919 11.647 C 19.694 10.973 19.694 7.027 16.919 6.353 L 16.447 8.296 Z M 14.763 4.232 C 13.803 5.807 14.654 7.861 16.447 8.296 L 16.919 6.353 C 16.442 6.237 16.216 5.691 16.471 5.273 L 14.763 4.232 Z M 13.768 3.237 C 14.416 2.842 15.158 3.584 14.763 4.232 L 16.471 5.273 C 17.957 2.834 15.166 0.043 12.727 1.529 L 13.768 3.237 Z M 9.704 1.553 C 10.139 3.346 12.193 4.197 13.768 3.237 L 12.727 1.529 C 12.309 1.784 11.763 1.558 11.647 1.081 L 9.704 1.553 Z M 11.647 1.081 C 10.973 -1.694 7.027 -1.694 6.353 1.081 L 8.296 1.553 C 8.475 0.816 9.525 0.816 9.704 1.553 L 11.647 1.081 Z M 11 9 C 11 10.105 10.105 11 9 11 L 9 13 C 11.209 13 13 11.209 13 9 L 11 9 Z M 9 11 C 7.895 11 7 10.105 7 9 L 5 9 C 5 11.209 6.791 13 9 13 L 9 11 Z M 7 9 C 7 7.895 7.895 7 9 7 L 9 5 C 6.791 5 5 6.791 5 9 L 7 9 Z M 9 7 C 10.105 7 11 7.895 11 9 L 13 9 C 13 6.791 11.209 5 9 5 L 9 7 Z" fill="currentColor" fill-rule="nonzero"></path>
</svg>