<svg xmlns="http://www.w3.org/2000/svg" width="18" height="14" viewBox="0 0 18 14" fill="none">
  <path d="M 0 4 C -0.552 4 -1 4.448 -1 5 C -1 5.552 -0.552 6 0 6 L 0 4 Z M 18 6 C 18.552 6 19 5.552 19 5 C 19 4.448 18.552 4 18 4 L 18 6 Z M 4 9 C 3.448 9 3 9.448 3 10 C 3 10.552 3.448 11 4 11 L 4 9 Z M 5 11 C 5.552 11 6 10.552 6 10 C 6 9.448 5.552 9 5 9 L 5 11 Z M 9 9 C 8.448 9 8 9.448 8 10 C 8 10.552 8.448 11 9 11 L 9 9 Z M 10 11 C 10.552 11 11 10.552 11 10 C 11 9.448 10.552 9 10 9 L 10 11 Z M 3 1 L 15 1 L 15 -1 L 3 -1 L 3 1 Z M 17 3 L 17 11 L 19 11 L 19 3 L 17 3 Z M 15 13 L 3 13 L 3 15 L 15 15 L 15 13 Z M 1 11 L 1 3 L -1 3 L -1 11 L 1 11 Z M 3 13 C 1.895 13 1 12.105 1 11 L -1 11 C -1 13.209 0.791 15 3 15 L 3 13 Z M 17 11 C 17 12.105 16.105 13 15 13 L 15 15 C 17.209 15 19 13.209 19 11 L 17 11 Z M 15 1 C 16.105 1 17 1.895 17 3 L 19 3 C 19 0.791 17.209 -1 15 -1 L 15 1 Z M 3 -1 C 0.791 -1 -1 0.791 -1 3 L 1 3 C 1 1.895 1.895 1 3 1 L 3 -1 Z M 0 6 L 18 6 L 18 4 L 0 4 L 0 6 Z M 4 11 L 5 11 L 5 9 L 4 9 L 4 11 Z M 9 11 L 10 11 L 10 9 L 9 9 L 9 11 Z" fill="currentColor" fill-rule="nonzero"></path>
</svg>