<svg xmlns="http://www.w3.org/2000/svg" width="16" height="2" viewBox="0 0 16 2" fill="none">
  <path d="M 1 0 C 0.448 0 0 0.448 0 1 C 0 1.552 0.448 2 1 2 L 1 0 Z M 1.01 2 C 1.562 2 2.01 1.552 2.01 1 C 2.01 0.448 1.562 0 1.01 0 L 1.01 2 Z M 8 0 C 7.448 0 7 0.448 7 1 C 7 1.552 7.448 2 8 2 L 8 0 Z M 8.01 2 C 8.562 2 9.01 1.552 9.01 1 C 9.01 0.448 8.562 0 8.01 0 L 8.01 2 Z M 15 0 C 14.448 0 14 0.448 14 1 C 14 1.552 14.448 2 15 2 L 15 0 Z M 15.01 2 C 15.562 2 16.01 1.552 16.01 1 C 16.01 0.448 15.562 0 15.01 0 L 15.01 2 Z M 1 1 L 1 3 C 2.105 3 3 2.105 3 1 L 1 1 Z M 1 1 L -1 1 C -1 2.105 -0.105 3 1 3 L 1 1 Z M 1 1 L 1 -1 C -0.105 -1 -1 -0.105 -1 1 L 1 1 Z M 1 1 L 3 1 C 3 -0.105 2.105 -1 1 -1 L 1 1 Z M 8 1 L 8 3 C 9.105 3 10 2.105 10 1 L 8 1 Z M 8 1 L 6 1 C 6 2.105 6.895 3 8 3 L 8 1 Z M 8 1 L 8 -1 C 6.895 -1 6 -0.105 6 1 L 8 1 Z M 8 1 L 10 1 C 10 -0.105 9.105 -1 8 -1 L 8 1 Z M 15 1 L 15 3 C 16.105 3 17 2.105 17 1 L 15 1 Z M 15 1 L 13 1 C 13 2.105 13.895 3 15 3 L 15 1 Z M 15 1 L 15 -1 C 13.895 -1 13 -0.105 13 1 L 15 1 Z M 15 1 L 17 1 C 17 -0.105 16.105 -1 15 -1 L 15 1 Z M 1 2 L 1.01 2 L 1.01 0 L 1 0 L 1 2 Z M 8 2 L 8.01 2 L 8.01 0 L 8 0 L 8 2 Z M 15 2 L 15.01 2 L 15.01 0 L 15 0 L 15 2 Z" fill="currentColor" fill-rule="nonzero"></path>
</svg>