<svg xmlns="http://www.w3.org/2000/svg" width="19.084" height="14" viewBox="0 0 19.084 14" fill="none">
  <path d="M 0 7 L -0.954 6.7 C -1.015 6.895 -1.015 7.105 -0.954 7.3 L 0 7 Z M 19.084 7 L 20.038 7.3 C 20.1 7.105 20.1 6.895 20.038 6.7 L 19.084 7 Z M 11.542 7 C 11.542 8.105 10.646 9 9.542 9 L 9.542 11 C 11.751 11 13.542 9.209 13.542 7 L 11.542 7 Z M 9.542 9 C 8.437 9 7.542 8.105 7.542 7 L 5.542 7 C 5.542 9.209 7.333 11 9.542 11 L 9.542 9 Z M 7.542 7 C 7.542 5.895 8.437 5 9.542 5 L 9.542 3 C 7.333 3 5.542 4.791 5.542 7 L 7.542 7 Z M 9.542 5 C 10.646 5 11.542 5.895 11.542 7 L 13.542 7 C 13.542 4.791 11.751 3 9.542 3 L 9.542 5 Z M 0.954 7.3 C 2.101 3.647 5.514 1 9.542 1 L 9.542 -1 C 4.615 -1 0.447 2.238 -0.954 6.7 L 0.954 7.3 Z M 9.542 1 C 13.571 1 16.983 3.647 18.13 7.3 L 20.038 6.7 C 18.637 2.238 14.469 -1 9.542 -1 L 9.542 1 Z M 18.13 6.7 C 16.983 10.353 13.571 13 9.542 13 L 9.542 15 C 14.469 15 18.637 11.762 20.038 7.3 L 18.13 6.7 Z M 9.542 13 C 5.514 13 2.101 10.353 0.954 6.7 L -0.954 7.3 C 0.447 11.762 4.615 15 9.542 15 L 9.542 13 Z" fill="currentColor" fill-rule="nonzero"></path>
</svg>