<svg xmlns="http://www.w3.org/2000/svg" width="18" height="18" viewBox="0 0 18 18" fill="none">
  <path d="M 7 18 L 6 18 C 6 18.404 6.244 18.769 6.617 18.924 C 6.991 19.079 7.421 18.993 7.707 18.707 L 7 18 Z M 11 14 L 11.707 14.707 C 11.895 14.52 12 14.265 12 14 L 11 14 Z M 6.707 10.707 L 6 11.414 L 6.707 10.707 Z M 0.293 4.293 L 1 3.586 L 0.293 4.293 Z M 17.707 4.293 L 18.414 5 L 17.707 4.293 Z M 1 1 L 17 1 L 17 -1 L 1 -1 L 1 1 Z M 17 1 L 17 3.586 L 19 3.586 L 19 1 L 17 1 Z M 1 3.586 L 1 1 L -1 1 L -1 3.586 L 1 3.586 Z M 7.414 10 L 1 3.586 L -0.414 5 L 6 11.414 L 7.414 10 Z M 17 3.586 L 10.586 10 L 12 11.414 L 18.414 5 L 17 3.586 Z M 8 18 L 8 11.414 L 6 11.414 L 6 18 L 8 18 Z M 10 11.414 L 10 14 L 12 14 L 12 11.414 L 10 11.414 Z M 10.293 13.293 L 6.293 17.293 L 7.707 18.707 L 11.707 14.707 L 10.293 13.293 Z M 10.586 10 C 10.211 10.375 10 10.884 10 11.414 L 12 11.414 L 12 11.414 L 10.586 10 Z M 6 11.414 L 6 11.414 L 8 11.414 C 8 10.884 7.789 10.375 7.414 10 L 6 11.414 Z M -1 3.586 C -1 4.116 -0.789 4.625 -0.414 5 L 1 3.586 L 1 3.586 L -1 3.586 Z M 17 3.586 L 17 3.586 L 18.414 5 C 18.789 4.625 19 4.116 19 3.586 L 17 3.586 Z M 17 1 L 17 1 L 19 1 C 19 -0.105 18.105 -1 17 -1 L 17 1 Z M 1 -1 C -0.105 -1 -1 -0.105 -1 1 L 1 1 L 1 1 L 1 -1 Z" fill="currentColor" fill-rule="nonzero"></path>
</svg>