<svg xmlns="http://www.w3.org/2000/svg" width="18" height="15.364" viewBox="0 0 18 15.364" fill="none">
  <path d="M 1.318 7.682 L 2.025 6.975 L 1.318 7.682 Z M 7.682 1.318 L 8.389 0.611 L 8.389 0.611 L 7.682 1.318 Z M 9 2.636 L 8.293 3.343 C 8.48 3.531 8.735 3.636 9 3.636 C 9.265 3.636 9.52 3.531 9.707 3.343 L 9 2.636 Z M 9 15.364 L 8.293 16.071 C 8.48 16.259 8.735 16.364 9 16.364 C 9.265 16.364 9.52 16.259 9.707 16.071 L 9 15.364 Z M 16.682 7.682 L 15.975 6.975 L 15.975 6.975 L 16.682 7.682 Z M 10.318 1.318 L 9.611 0.611 L 9.611 0.611 L 10.318 1.318 Z M 2.025 6.975 C 0.658 5.608 0.658 3.392 2.025 2.025 L 0.611 0.611 C -1.537 2.759 -1.537 6.241 0.611 8.389 L 2.025 6.975 Z M 2.025 2.025 C 3.392 0.658 5.608 0.658 6.975 2.025 L 8.389 0.611 C 6.241 -1.537 2.759 -1.537 0.611 0.611 L 2.025 2.025 Z M 6.975 2.025 L 8.293 3.343 L 9.707 1.929 L 8.389 0.611 L 6.975 2.025 Z M 0.611 8.389 L 8.293 16.071 L 9.707 14.657 L 2.025 6.975 L 0.611 8.389 Z M 15.975 2.025 C 17.342 3.392 17.342 5.608 15.975 6.975 L 17.389 8.389 C 19.537 6.241 19.537 2.759 17.389 0.611 L 15.975 2.025 Z M 11.025 2.025 C 12.392 0.658 14.608 0.658 15.975 2.025 L 17.389 0.611 C 15.241 -1.537 11.759 -1.537 9.611 0.611 L 11.025 2.025 Z M 15.975 6.975 L 8.293 14.657 L 9.707 16.071 L 17.389 8.389 L 15.975 6.975 Z M 9.611 0.611 L 8.293 1.929 L 9.707 3.343 L 11.025 2.025 L 9.611 0.611 Z" fill="currentColor" fill-rule="nonzero"></path>
</svg>