<svg xmlns="http://www.w3.org/2000/svg" width="18" height="18" viewBox="0 0 18 18" fill="none">
  <path d="M -0.707 8.293 C -1.098 8.683 -1.098 9.317 -0.707 9.707 C -0.317 10.098 0.317 10.098 0.707 9.707 L -0.707 8.293 Z M 9 0 L 9.707 -0.707 C 9.317 -1.098 8.683 -1.098 8.293 -0.707 L 9 0 Z M 17.293 9.707 C 17.683 10.098 18.317 10.098 18.707 9.707 C 19.098 9.317 19.098 8.683 18.707 8.293 L 17.293 9.707 Z M 0.707 9.707 L 2.707 7.707 L 1.293 6.293 L -0.707 8.293 L 0.707 9.707 Z M 2.707 7.707 L 9.707 0.707 L 8.293 -0.707 L 1.293 6.293 L 2.707 7.707 Z M 8.293 0.707 L 15.293 7.707 L 16.707 6.293 L 9.707 -0.707 L 8.293 0.707 Z M 15.293 7.707 L 17.293 9.707 L 18.707 8.293 L 16.707 6.293 L 15.293 7.707 Z M 1 7 L 1 17 L 3 17 L 3 7 L 1 7 Z M 3 19 L 6 19 L 6 17 L 3 17 L 3 19 Z M 8 17 L 8 13 L 6 13 L 6 17 L 8 17 Z M 8 13 L 10 13 L 10 11 L 8 11 L 8 13 Z M 10 13 L 10 17 L 12 17 L 12 13 L 10 13 Z M 12 19 L 15 19 L 15 17 L 12 17 L 12 19 Z M 17 17 L 17 7 L 15 7 L 15 17 L 17 17 Z M 15 19 C 16.105 19 17 18.105 17 17 L 15 17 L 15 19 Z M 10 17 C 10 18.105 10.895 19 12 19 L 12 17 L 10 17 Z M 10 13 L 12 13 C 12 11.895 11.105 11 10 11 L 10 13 Z M 8 13 L 8 11 C 6.895 11 6 11.895 6 13 L 8 13 Z M 6 19 C 7.105 19 8 18.105 8 17 L 6 17 L 6 19 Z M 1 17 C 1 18.105 1.895 19 3 19 L 3 17 L 1 17 Z M 6 19 L 12 19 L 12 17 L 6 17 L 6 19 Z" fill="currentColor" fill-rule="nonzero"></path>
</svg>