<svg xmlns="http://www.w3.org/2000/svg" width="18" height="18" viewBox="0 0 18 18" fill="none">
  <path d="M 9 9 L 10 9 C 10 8.448 9.552 8 9 8 L 9 9 Z M 9 13 L 8 13 C 8 13.552 8.448 14 9 14 L 9 13 Z M 10 14 C 10.552 14 11 13.552 11 13 C 11 12.448 10.552 12 10 12 L 10 14 Z M 8 8 C 7.448 8 7 8.448 7 9 C 7 9.552 7.448 10 8 10 L 8 8 Z M 9 4 C 8.448 4 8 4.448 8 5 C 8 5.552 8.448 6 9 6 L 9 4 Z M 9.01 6 C 9.562 6 10.01 5.552 10.01 5 C 10.01 4.448 9.562 4 9.01 4 L 9.01 6 Z M 8 9 L 8 13 L 10 13 L 10 9 L 8 9 Z M 9 14 L 10 14 L 10 12 L 9 12 L 9 14 Z M 9 8 L 8 8 L 8 10 L 9 10 L 9 8 Z M 17 9 C 17 13.418 13.418 17 9 17 L 9 19 C 14.523 19 19 14.523 19 9 L 17 9 Z M 9 17 C 4.582 17 1 13.418 1 9 L -1 9 C -1 14.523 3.477 19 9 19 L 9 17 Z M 1 9 C 1 4.582 4.582 1 9 1 L 9 -1 C 3.477 -1 -1 3.477 -1 9 L 1 9 Z M 9 1 C 13.418 1 17 4.582 17 9 L 19 9 C 19 3.477 14.523 -1 9 -1 L 9 1 Z M 9 6 L 9.01 6 L 9.01 4 L 9 4 L 9 6 Z" fill="currentColor" fill-rule="nonzero"></path>
</svg>