<svg xmlns="http://www.w3.org/2000/svg" width="16" height="19.314" viewBox="0 0 16 19.314" fill="none">
  <path d="M 3.05 12.95 C 0.317 10.216 0.317 5.784 3.05 3.05 L 1.636 1.636 C -1.879 5.151 -1.879 10.849 1.636 14.364 L 3.05 12.95 Z M 3.05 3.05 C 5.784 0.317 10.216 0.317 12.95 3.05 L 14.364 1.636 C 10.849 -1.879 5.151 -1.879 1.636 1.636 L 3.05 3.05 Z M 12.95 3.05 C 15.683 5.784 15.683 10.216 12.95 12.95 L 14.364 14.364 C 17.879 10.849 17.879 5.151 14.364 1.636 L 12.95 3.05 Z M 12.95 12.95 C 12.948 12.952 12.946 12.953 12.944 12.955 C 12.942 12.957 12.941 12.959 12.939 12.961 C 12.937 12.963 12.935 12.964 12.933 12.966 C 12.931 12.968 12.929 12.97 12.928 12.972 C 12.926 12.974 12.924 12.976 12.922 12.977 C 12.92 12.979 12.918 12.981 12.916 12.983 C 12.915 12.985 12.913 12.987 12.911 12.989 C 12.909 12.991 12.907 12.993 12.905 12.994 C 12.903 12.996 12.901 12.998 12.899 13 C 12.898 13.002 12.896 13.004 12.894 13.006 C 12.892 13.008 12.89 13.01 12.888 13.012 C 12.886 13.013 12.884 13.015 12.882 13.017 C 12.88 13.019 12.878 13.021 12.876 13.023 C 12.875 13.025 12.873 13.027 12.871 13.029 C 12.869 13.031 12.867 13.033 12.865 13.035 C 12.863 13.037 12.861 13.039 12.859 13.04 C 12.857 13.042 12.855 13.044 12.853 13.046 C 12.851 13.048 12.849 13.05 12.847 13.052 C 12.845 13.054 12.843 13.056 12.841 13.058 C 12.839 13.06 12.837 13.062 12.835 13.064 C 12.833 13.066 12.831 13.068 12.829 13.07 C 12.827 13.072 12.825 13.074 12.823 13.076 C 12.821 13.078 12.819 13.08 12.817 13.082 C 12.815 13.084 12.813 13.086 12.811 13.088 C 12.809 13.09 12.807 13.092 12.805 13.094 C 12.803 13.096 12.801 13.098 12.799 13.1 C 12.797 13.102 12.795 13.104 12.793 13.106 C 12.791 13.108 12.789 13.11 12.787 13.112 C 12.785 13.114 12.783 13.116 12.781 13.118 C 12.779 13.12 12.777 13.123 12.775 13.125 C 12.773 13.127 12.771 13.129 12.769 13.131 C 12.767 13.133 12.765 13.135 12.763 13.137 C 12.76 13.139 12.758 13.141 12.756 13.143 C 12.754 13.145 12.752 13.147 12.75 13.149 C 12.748 13.151 12.746 13.154 12.744 13.156 C 12.742 13.158 12.74 13.16 12.738 13.162 C 12.735 13.164 12.733 13.166 12.731 13.168 C 12.729 13.17 12.727 13.172 12.725 13.175 C 12.723 13.177 12.721 13.179 12.719 13.181 C 12.717 13.183 12.714 13.185 12.712 13.187 C 12.71 13.189 12.708 13.191 12.706 13.194 C 12.704 13.196 12.702 13.198 12.7 13.2 C 12.697 13.202 12.695 13.204 12.693 13.206 C 12.691 13.209 12.689 13.211 12.687 13.213 C 12.685 13.215 12.682 13.217 12.68 13.219 C 12.678 13.221 12.676 13.224 12.674 13.226 C 12.672 13.228 12.669 13.23 12.667 13.232 C 12.665 13.234 12.663 13.237 12.661 13.239 C 12.659 13.241 12.656 13.243 12.654 13.245 C 12.652 13.247 12.65 13.25 12.648 13.252 C 12.645 13.254 12.643 13.256 12.641 13.258 C 12.639 13.261 12.637 13.263 12.634 13.265 C 12.632 13.267 12.63 13.269 12.628 13.272 C 12.626 13.274 12.623 13.276 12.621 13.278 C 12.619 13.281 12.617 13.283 12.615 13.285 C 12.612 13.287 12.61 13.289 12.608 13.292 C 12.606 13.294 12.603 13.296 12.601 13.298 C 12.599 13.301 12.597 13.303 12.594 13.305 C 12.592 13.307 12.59 13.31 12.588 13.312 C 12.585 13.314 12.583 13.316 12.581 13.319 C 12.579 13.321 12.576 13.323 12.574 13.325 C 12.572 13.328 12.57 13.33 12.567 13.332 C 12.565 13.334 12.563 13.337 12.561 13.339 C 12.558 13.341 12.556 13.343 12.554 13.346 C 12.552 13.348 12.549 13.35 12.547 13.353 C 12.545 13.355 12.542 13.357 12.54 13.359 C 12.538 13.362 12.536 13.364 12.533 13.366 C 12.531 13.369 12.529 13.371 12.526 13.373 C 12.524 13.375 12.522 13.378 12.519 13.38 C 12.517 13.382 12.515 13.385 12.512 13.387 C 12.51 13.389 12.508 13.392 12.505 13.394 C 12.503 13.396 12.501 13.399 12.499 13.401 C 12.496 13.403 12.494 13.406 12.492 13.408 C 12.489 13.41 12.487 13.413 12.485 13.415 C 12.482 13.417 12.48 13.42 12.477 13.422 C 12.475 13.424 12.473 13.427 12.47 13.429 C 12.468 13.431 12.466 13.434 12.463 13.436 C 12.461 13.438 12.459 13.441 12.456 13.443 C 12.454 13.446 12.452 13.448 12.449 13.45 C 12.447 13.453 12.444 13.455 12.442 13.457 C 12.44 13.46 12.437 13.462 12.435 13.465 C 12.433 13.467 12.43 13.469 12.428 13.472 C 12.425 13.474 12.423 13.476 12.421 13.479 C 12.418 13.481 12.416 13.484 12.413 13.486 C 12.411 13.488 12.409 13.491 12.406 13.493 C 12.404 13.496 12.401 13.498 12.399 13.5 C 12.397 13.503 12.394 13.505 12.392 13.508 C 12.389 13.51 12.387 13.513 12.385 13.515 C 12.382 13.517 12.38 13.52 12.377 13.522 C 12.375 13.525 12.372 13.527 12.37 13.53 C 12.368 13.532 12.365 13.534 12.363 13.537 C 12.36 13.539 12.358 13.542 12.355 13.544 C 12.353 13.547 12.35 13.549 12.348 13.552 C 12.346 13.554 12.343 13.556 12.341 13.559 C 12.338 13.561 12.336 13.564 12.333 13.566 C 12.331 13.569 12.328 13.571 12.326 13.574 C 12.323 13.576 12.321 13.579 12.318 13.581 C 12.316 13.583 12.314 13.586 12.311 13.588 C 12.309 13.591 12.306 13.593 12.304 13.596 C 12.301 13.598 12.299 13.601 12.296 13.603 C 12.294 13.606 12.291 13.608 12.289 13.611 C 12.286 13.613 12.284 13.616 12.281 13.618 C 12.279 13.621 12.276 13.623 12.274 13.626 C 12.271 13.628 12.269 13.631 12.266 13.633 C 12.264 13.636 12.261 13.638 12.259 13.641 C 12.256 13.643 12.254 13.646 12.251 13.648 C 12.249 13.651 12.246 13.653 12.244 13.656 C 12.241 13.658 12.238 13.661 12.236 13.664 C 12.233 13.666 12.231 13.669 12.228 13.671 C 12.226 13.674 12.223 13.676 12.221 13.679 C 12.218 13.681 12.216 13.684 12.213 13.686 C 12.211 13.689 12.208 13.691 12.205 13.694 C 12.203 13.697 12.2 13.699 12.198 13.702 C 12.195 13.704 12.193 13.707 12.19 13.709 C 12.188 13.712 12.185 13.714 12.182 13.717 C 12.18 13.72 12.177 13.722 12.175 13.725 C 12.172 13.727 12.17 13.73 12.167 13.732 C 12.164 13.735 12.162 13.738 12.159 13.74 C 12.157 13.743 12.154 13.745 12.152 13.748 C 12.149 13.751 12.146 13.753 12.144 13.756 C 12.141 13.758 12.139 13.761 12.136 13.763 C 12.133 13.766 12.131 13.769 12.128 13.771 C 12.126 13.774 12.123 13.776 12.12 13.779 C 12.118 13.782 12.115 13.784 12.113 13.787 C 12.11 13.79 12.107 13.792 12.105 13.795 C 12.102 13.797 12.1 13.8 12.097 13.803 C 12.094 13.805 12.092 13.808 12.089 13.81 C 12.086 13.813 12.084 13.816 12.081 13.818 C 12.079 13.821 12.076 13.824 12.073 13.826 C 12.071 13.829 12.068 13.831 12.065 13.834 C 12.063 13.837 12.06 13.839 12.057 13.842 C 12.055 13.845 12.052 13.847 12.05 13.85 C 12.047 13.853 12.044 13.855 12.042 13.858 C 12.039 13.861 12.036 13.863 12.034 13.866 C 12.031 13.869 12.028 13.871 12.026 13.874 C 12.023 13.877 12.02 13.879 12.018 13.882 C 12.015 13.885 12.012 13.887 12.01 13.89 C 12.007 13.893 12.004 13.895 12.002 13.898 C 11.999 13.901 11.996 13.903 11.994 13.906 C 11.991 13.909 11.988 13.911 11.986 13.914 C 11.983 13.917 11.98 13.919 11.978 13.922 C 11.975 13.925 11.972 13.927 11.969 13.93 C 11.967 13.933 11.964 13.935 11.961 13.938 C 11.959 13.941 11.956 13.944 11.953 13.946 C 11.951 13.949 11.948 13.952 11.945 13.954 C 11.942 13.957 11.94 13.96 11.937 13.962 C 11.934 13.965 11.932 13.968 11.929 13.971 C 11.926 13.973 11.923 13.976 11.921 13.979 C 11.918 13.981 11.915 13.984 11.913 13.987 C 11.91 13.99 11.907 13.992 11.904 13.995 C 11.902 13.998 11.899 14.001 11.896 14.003 C 11.894 14.006 11.891 14.009 11.888 14.011 C 11.885 14.014 11.883 14.017 11.88 14.02 C 11.877 14.022 11.874 14.025 11.872 14.028 C 11.869 14.031 11.866 14.033 11.863 14.036 C 11.861 14.039 11.858 14.042 11.855 14.044 C 11.852 14.047 11.85 14.05 11.847 14.053 C 11.844 14.055 11.841 14.058 11.839 14.061 C 11.836 14.064 11.833 14.066 11.83 14.069 C 11.828 14.072 11.825 14.075 11.822 14.077 C 11.819 14.08 11.817 14.083 11.814 14.086 C 11.811 14.088 11.808 14.091 11.805 14.094 C 11.803 14.097 11.8 14.1 11.797 14.102 C 11.794 14.105 11.792 14.108 11.789 14.111 C 11.786 14.113 11.783 14.116 11.78 14.119 C 11.778 14.122 11.775 14.125 11.772 14.127 C 11.769 14.13 11.767 14.133 11.764 14.136 C 11.761 14.139 11.758 14.141 11.755 14.144 C 11.753 14.147 11.75 14.15 11.747 14.153 C 11.744 14.155 11.741 14.158 11.739 14.161 C 11.736 14.164 11.733 14.167 11.73 14.169 C 11.727 14.172 11.725 14.175 11.722 14.178 C 11.719 14.181 11.716 14.183 11.713 14.186 C 11.71 14.189 11.708 14.192 11.705 14.195 C 11.702 14.198 11.699 14.2 11.696 14.203 C 11.694 14.206 11.691 14.209 11.688 14.212 C 11.685 14.214 11.682 14.217 11.679 14.22 C 11.677 14.223 11.674 14.226 11.671 14.229 C 11.668 14.231 11.665 14.234 11.662 14.237 C 11.66 14.24 11.657 14.243 11.654 14.246 C 11.651 14.248 11.648 14.251 11.645 14.254 C 11.643 14.257 11.64 14.26 11.637 14.263 C 11.634 14.265 11.631 14.268 11.628 14.271 C 11.625 14.274 11.623 14.277 11.62 14.28 C 11.617 14.283 11.614 14.285 11.611 14.288 C 11.608 14.291 11.605 14.294 11.603 14.297 C 11.6 14.3 11.597 14.303 11.594 14.305 C 11.591 14.308 11.588 14.311 11.585 14.314 C 11.583 14.317 11.58 14.32 11.577 14.323 C 11.574 14.326 11.571 14.328 11.568 14.331 C 11.565 14.334 11.562 14.337 11.56 14.34 C 11.557 14.343 11.554 14.346 11.551 14.349 C 11.548 14.351 11.545 14.354 11.542 14.357 C 11.539 14.36 11.537 14.363 11.534 14.366 C 11.531 14.369 11.528 14.372 11.525 14.374 C 11.522 14.377 11.519 14.38 11.516 14.383 C 11.513 14.386 11.511 14.389 11.508 14.392 C 11.505 14.395 11.502 14.398 11.499 14.4 C 11.496 14.403 11.493 14.406 11.49 14.409 C 11.487 14.412 11.485 14.415 11.482 14.418 C 11.479 14.421 11.476 14.424 11.473 14.427 C 11.47 14.429 11.467 14.432 11.464 14.435 C 11.461 14.438 11.458 14.441 11.455 14.444 C 11.453 14.447 11.45 14.45 11.447 14.453 C 11.444 14.456 11.441 14.459 11.438 14.462 C 11.435 14.464 11.432 14.467 11.429 14.47 C 11.426 14.473 11.423 14.476 11.42 14.479 C 11.418 14.482 11.415 14.485 11.412 14.488 C 11.409 14.491 11.406 14.494 11.403 14.497 C 11.4 14.5 11.397 14.502 11.394 14.505 C 11.391 14.508 11.388 14.511 11.385 14.514 C 11.382 14.517 11.379 14.52 11.377 14.523 C 11.374 14.526 11.371 14.529 11.368 14.532 C 11.365 14.535 11.362 14.538 11.359 14.541 C 11.356 14.544 11.353 14.546 11.35 14.549 C 11.347 14.552 11.344 14.555 11.341 14.558 C 11.338 14.561 11.335 14.564 11.332 14.567 C 11.329 14.57 11.327 14.573 11.324 14.576 C 11.321 14.579 11.318 14.582 11.315 14.585 C 11.312 14.588 11.309 14.591 11.306 14.594 C 11.303 14.597 11.3 14.6 11.297 14.603 C 11.294 14.605 11.291 14.608 11.288 14.611 C 11.285 14.614 11.282 14.617 11.279 14.62 C 11.276 14.623 11.273 14.626 11.27 14.629 C 11.267 14.632 11.264 14.635 11.261 14.638 C 11.258 14.641 11.255 14.644 11.252 14.647 C 11.25 14.65 11.247 14.653 11.244 14.656 C 11.241 14.659 11.238 14.662 11.235 14.665 C 11.232 14.668 11.229 14.671 11.226 14.674 C 11.223 14.677 11.22 14.68 11.217 14.683 C 11.214 14.686 11.211 14.689 11.208 14.692 C 11.205 14.695 11.202 14.698 11.199 14.701 C 11.196 14.704 11.193 14.707 11.19 14.71 C 11.187 14.713 11.184 14.716 11.181 14.719 C 11.178 14.721 11.175 14.724 11.172 14.727 C 11.169 14.73 11.166 14.733 11.163 14.736 C 11.16 14.739 11.157 14.742 11.154 14.745 C 11.151 14.748 11.148 14.751 11.145 14.754 C 11.142 14.757 11.139 14.76 11.136 14.763 C 11.133 14.766 11.13 14.769 11.127 14.772 C 11.124 14.775 11.121 14.778 11.118 14.781 C 11.115 14.784 11.112 14.787 11.109 14.79 C 11.106 14.793 11.103 14.796 11.1 14.799 C 11.097 14.802 11.094 14.805 11.091 14.808 C 11.088 14.811 11.085 14.814 11.082 14.817 C 11.079 14.82 11.076 14.823 11.073 14.826 C 11.07 14.83 11.067 14.833 11.064 14.836 C 11.061 14.839 11.058 14.842 11.055 14.845 C 11.052 14.848 11.049 14.851 11.046 14.854 C 11.043 14.857 11.04 14.86 11.037 14.863 C 11.034 14.866 11.031 14.869 11.028 14.872 C 11.025 14.875 11.022 14.878 11.019 14.881 C 11.016 14.884 11.013 14.887 11.01 14.89 C 11.007 14.893 11.004 14.896 11.001 14.899 C 10.998 14.902 10.995 14.905 10.991 14.908 C 10.988 14.911 10.985 14.914 10.982 14.917 C 10.979 14.92 10.976 14.923 10.973 14.926 C 10.97 14.929 10.967 14.932 10.964 14.935 C 10.961 14.938 10.958 14.941 10.955 14.944 C 10.952 14.947 10.949 14.95 10.946 14.953 C 10.943 14.957 10.94 14.96 10.937 14.963 C 10.934 14.966 10.931 14.969 10.928 14.972 C 10.925 14.975 10.922 14.978 10.919 14.981 C 10.916 14.984 10.913 14.987 10.91 14.99 C 10.907 14.993 10.903 14.996 10.9 14.999 C 10.897 15.002 10.894 15.005 10.891 15.008 C 10.888 15.011 10.885 15.014 10.882 15.017 C 10.879 15.02 10.876 15.023 10.873 15.026 C 10.87 15.029 10.867 15.033 10.864 15.036 C 10.861 15.039 10.858 15.042 10.855 15.045 C 10.852 15.048 10.849 15.051 10.846 15.054 C 10.843 15.057 10.84 15.06 10.836 15.063 C 10.833 15.066 10.83 15.069 10.827 15.072 C 10.824 15.075 10.821 15.078 10.818 15.081 C 10.815 15.084 10.812 15.087 10.809 15.09 C 10.806 15.094 10.803 15.097 10.8 15.1 C 10.797 15.103 10.794 15.106 10.791 15.109 C 10.788 15.112 10.785 15.115 10.782 15.118 C 10.778 15.121 10.775 15.124 10.772 15.127 C 10.769 15.13 10.766 15.133 10.763 15.136 C 10.76 15.139 10.757 15.142 10.754 15.145 C 10.751 15.149 10.748 15.152 10.745 15.155 C 10.742 15.158 10.739 15.161 10.736 15.164 C 10.733 15.167 10.73 15.17 10.726 15.173 C 10.723 15.176 10.72 15.179 10.717 15.182 C 10.714 15.185 10.711 15.188 10.708 15.191 C 10.705 15.194 10.702 15.198 10.699 15.201 C 10.696 15.204 10.693 15.207 10.69 15.21 C 10.559 15.341 10.526 15.374 10.395 15.505 C 10.329 15.571 10.386 15.513 10.321 15.579 C 10.255 15.645 10.312 15.587 10.247 15.653 C 10.239 15.661 10.237 15.663 10.228 15.671 C 10.22 15.679 10.218 15.681 10.21 15.69 C 10.207 15.692 10.194 15.705 10.191 15.708 C 10.183 15.716 10.181 15.718 10.173 15.726 C 10.14 15.759 10.132 15.767 10.099 15.8 C 10.067 15.833 10.095 15.804 10.063 15.837 C 10.046 15.853 10.042 15.857 10.026 15.874 C 10.01 15.89 10.024 15.876 10.007 15.892 C 10.004 15.895 10.001 15.898 9.998 15.901 C 9.995 15.904 9.992 15.907 9.989 15.91 C 9.94 15.959 10.001 15.898 9.953 15.947 C 9.936 15.963 9.932 15.967 9.916 15.984 C 9.9 16 9.896 16.004 9.879 16.02 C 9.847 16.052 9.875 16.024 9.843 16.057 C 9.835 16.065 9.815 16.085 9.807 16.093 C 9.742 16.157 9.726 16.174 9.662 16.238 C 9.598 16.302 9.582 16.317 9.518 16.381 C 9.495 16.405 9.507 16.393 9.483 16.417 C 9.463 16.436 9.485 16.415 9.465 16.434 C 9.462 16.437 9.459 16.44 9.456 16.443 C 9.453 16.446 9.45 16.449 9.447 16.452 C 9.445 16.455 9.442 16.458 9.439 16.461 C 9.436 16.464 9.433 16.467 9.43 16.47 C 9.422 16.478 9.42 16.479 9.412 16.487 C 9.409 16.49 9.406 16.493 9.403 16.496 C 9.4 16.499 9.397 16.502 9.395 16.505 C 9.392 16.508 9.389 16.511 9.386 16.514 C 9.383 16.517 9.38 16.52 9.377 16.523 C 9.346 16.554 9.268 16.631 9.238 16.662 C 9.222 16.677 9.218 16.681 9.203 16.696 C 9.199 16.7 9.19 16.71 9.186 16.714 C 9.183 16.716 9.18 16.719 9.177 16.722 C 9.174 16.725 9.172 16.728 9.169 16.731 C 9.166 16.734 9.163 16.736 9.16 16.739 C 9.157 16.742 9.154 16.745 9.152 16.748 C 9.149 16.751 9.146 16.754 9.143 16.756 C 9.14 16.759 9.137 16.762 9.135 16.765 C 9.119 16.78 9.133 16.767 9.118 16.782 C 9.107 16.792 9.111 16.789 9.101 16.799 C 9.078 16.822 9.089 16.81 9.067 16.833 C 9.052 16.848 9.048 16.852 9.033 16.867 C 9.003 16.896 8.996 16.904 8.966 16.933 C 8.907 16.992 8.959 16.941 8.9 16.999 C 8.842 17.058 8.893 17.007 8.835 17.065 C 8.806 17.094 8.847 17.052 8.819 17.081 C 8.816 17.084 8.813 17.086 8.811 17.089 C 8.808 17.092 8.805 17.094 8.802 17.097 C 8.774 17.126 8.799 17.101 8.77 17.129 C 8.768 17.132 8.765 17.135 8.762 17.137 C 8.76 17.14 8.757 17.143 8.754 17.145 C 8.752 17.148 8.749 17.15 8.746 17.153 C 8.744 17.156 8.741 17.158 8.738 17.161 C 8.735 17.165 8.726 17.173 8.723 17.177 C 8.715 17.184 8.714 17.186 8.707 17.193 L 10.121 18.607 C 10.124 18.604 10.126 18.602 10.129 18.599 C 10.131 18.596 10.134 18.594 10.137 18.591 C 10.139 18.589 10.142 18.586 10.145 18.583 C 10.147 18.581 10.15 18.578 10.153 18.575 C 10.155 18.573 10.158 18.57 10.161 18.567 C 10.163 18.565 10.166 18.562 10.169 18.559 C 10.211 18.517 10.142 18.586 10.185 18.543 C 10.187 18.541 10.19 18.538 10.193 18.535 C 10.195 18.533 10.198 18.53 10.201 18.527 C 10.215 18.513 10.202 18.526 10.217 18.511 C 10.224 18.504 10.226 18.502 10.233 18.495 C 10.235 18.492 10.238 18.49 10.241 18.487 C 10.244 18.484 10.246 18.482 10.249 18.479 C 10.249 18.479 10.379 18.349 10.38 18.348 C 10.41 18.318 10.417 18.311 10.447 18.281 C 10.492 18.236 10.436 18.292 10.481 18.247 C 10.484 18.244 10.487 18.241 10.489 18.239 C 10.492 18.236 10.495 18.233 10.498 18.23 C 10.501 18.227 10.503 18.224 10.506 18.222 C 10.509 18.219 10.512 18.216 10.515 18.213 C 10.52 18.208 10.527 18.201 10.532 18.196 C 10.535 18.193 10.537 18.191 10.54 18.188 C 10.543 18.185 10.546 18.182 10.549 18.179 C 10.579 18.149 10.535 18.193 10.566 18.162 C 10.569 18.159 10.572 18.156 10.574 18.154 C 10.577 18.151 10.58 18.148 10.583 18.145 C 10.586 18.142 10.589 18.139 10.591 18.136 C 10.594 18.134 10.597 18.131 10.6 18.128 C 10.604 18.124 10.613 18.114 10.617 18.111 C 10.633 18.095 10.636 18.092 10.652 18.076 C 10.682 18.046 10.76 17.968 10.791 17.937 C 10.838 17.89 10.779 17.949 10.826 17.902 C 10.829 17.899 10.832 17.896 10.835 17.893 C 10.838 17.89 10.841 17.887 10.844 17.884 C 10.875 17.853 10.83 17.898 10.862 17.866 C 10.893 17.835 10.848 17.88 10.879 17.849 C 10.883 17.845 10.893 17.835 10.897 17.831 C 10.905 17.823 10.925 17.803 10.933 17.795 C 10.956 17.771 10.945 17.783 10.968 17.76 C 10.984 17.744 10.97 17.758 10.986 17.742 C 10.989 17.739 10.992 17.736 10.995 17.733 C 10.998 17.73 11.001 17.727 11.004 17.724 C 11.036 17.692 11.044 17.684 11.076 17.652 C 11.108 17.62 11.062 17.666 11.094 17.634 C 11.097 17.631 11.1 17.628 11.103 17.625 C 11.106 17.622 11.109 17.619 11.112 17.616 C 11.128 17.6 11.132 17.596 11.148 17.58 C 11.152 17.576 11.162 17.566 11.166 17.562 C 11.185 17.543 11.166 17.562 11.184 17.543 C 11.187 17.54 11.19 17.537 11.194 17.534 C 11.197 17.531 11.2 17.528 11.203 17.525 C 11.206 17.522 11.209 17.519 11.212 17.516 C 11.215 17.513 11.218 17.51 11.221 17.507 C 11.229 17.499 11.249 17.479 11.257 17.471 C 11.265 17.463 11.267 17.461 11.275 17.453 C 11.292 17.436 11.277 17.451 11.294 17.434 C 11.31 17.418 11.314 17.414 11.33 17.398 C 11.333 17.395 11.336 17.392 11.339 17.389 C 11.342 17.386 11.345 17.383 11.348 17.379 C 11.351 17.376 11.355 17.373 11.358 17.37 C 11.361 17.367 11.364 17.364 11.367 17.361 C 11.367 17.361 11.403 17.325 11.403 17.325 C 11.406 17.321 11.409 17.318 11.413 17.315 C 11.416 17.312 11.419 17.309 11.422 17.306 C 11.422 17.306 11.44 17.288 11.44 17.288 C 11.462 17.266 11.455 17.273 11.477 17.251 C 11.509 17.218 11.463 17.265 11.495 17.233 C 11.499 17.229 11.509 17.218 11.514 17.214 C 11.579 17.149 11.522 17.206 11.587 17.141 C 11.604 17.124 11.589 17.139 11.606 17.122 C 11.614 17.114 11.616 17.112 11.624 17.104 C 11.641 17.087 11.645 17.083 11.661 17.067 C 11.759 16.969 11.71 17.018 11.809 16.919 C 11.896 16.832 11.869 16.859 11.956 16.771 C 11.967 16.761 11.982 16.745 11.993 16.735 C 12.018 16.71 11.987 16.741 12.012 16.716 C 12.028 16.7 12.014 16.714 12.03 16.698 C 12.033 16.695 12.036 16.692 12.039 16.688 C 12.043 16.685 12.046 16.682 12.049 16.679 C 12.052 16.676 12.055 16.673 12.058 16.67 C 12.061 16.667 12.064 16.664 12.067 16.661 C 12.07 16.658 12.073 16.655 12.076 16.652 C 12.079 16.649 12.082 16.645 12.085 16.642 C 12.089 16.639 12.092 16.636 12.095 16.633 C 12.098 16.63 12.101 16.627 12.104 16.624 C 12.107 16.621 12.11 16.618 12.113 16.615 C 12.116 16.612 12.119 16.609 12.122 16.606 C 12.125 16.603 12.128 16.6 12.131 16.596 C 12.135 16.593 12.138 16.59 12.141 16.587 C 12.144 16.584 12.147 16.581 12.15 16.578 C 12.153 16.575 12.156 16.572 12.159 16.569 C 12.162 16.566 12.165 16.563 12.168 16.56 C 12.171 16.557 12.174 16.554 12.177 16.551 C 12.18 16.547 12.184 16.544 12.187 16.541 C 12.19 16.538 12.193 16.535 12.196 16.532 C 12.199 16.529 12.202 16.526 12.205 16.523 C 12.208 16.52 12.211 16.517 12.214 16.514 C 12.217 16.511 12.22 16.508 12.223 16.505 C 12.226 16.502 12.229 16.499 12.232 16.496 C 12.235 16.492 12.239 16.489 12.242 16.486 C 12.245 16.483 12.248 16.48 12.251 16.477 C 12.254 16.474 12.257 16.471 12.26 16.468 C 12.263 16.465 12.266 16.462 12.269 16.459 C 12.272 16.456 12.275 16.453 12.278 16.45 C 12.281 16.447 12.284 16.444 12.287 16.441 C 12.29 16.438 12.293 16.435 12.296 16.432 C 12.299 16.428 12.303 16.425 12.306 16.422 C 12.309 16.419 12.312 16.416 12.315 16.413 C 12.318 16.41 12.321 16.407 12.324 16.404 C 12.327 16.401 12.33 16.398 12.333 16.395 C 12.336 16.392 12.339 16.389 12.342 16.386 C 12.345 16.383 12.348 16.38 12.351 16.377 C 12.354 16.374 12.357 16.371 12.36 16.368 C 12.363 16.365 12.366 16.362 12.369 16.359 C 12.372 16.356 12.375 16.353 12.378 16.349 C 12.381 16.346 12.384 16.343 12.388 16.34 C 12.391 16.337 12.394 16.334 12.397 16.331 C 12.4 16.328 12.403 16.325 12.406 16.322 C 12.409 16.319 12.412 16.316 12.415 16.313 C 12.418 16.31 12.421 16.307 12.424 16.304 C 12.427 16.301 12.43 16.298 12.433 16.295 C 12.436 16.292 12.439 16.289 12.442 16.286 C 12.445 16.283 12.448 16.28 12.451 16.277 C 12.454 16.274 12.457 16.271 12.46 16.268 C 12.463 16.265 12.466 16.262 12.469 16.259 C 12.472 16.256 12.475 16.253 12.478 16.25 C 12.481 16.247 12.484 16.244 12.487 16.241 C 12.49 16.238 12.493 16.235 12.496 16.232 C 12.499 16.229 12.502 16.226 12.505 16.223 C 12.508 16.22 12.511 16.217 12.514 16.214 C 12.517 16.211 12.52 16.208 12.523 16.205 C 12.526 16.202 12.529 16.199 12.532 16.196 C 12.535 16.193 12.538 16.19 12.541 16.187 C 12.544 16.184 12.547 16.181 12.55 16.178 C 12.553 16.175 12.556 16.172 12.559 16.169 C 12.562 16.166 12.565 16.163 12.568 16.16 C 12.571 16.157 12.574 16.154 12.577 16.151 C 12.58 16.148 12.583 16.145 12.586 16.142 C 12.589 16.139 12.592 16.136 12.595 16.133 C 12.598 16.13 12.601 16.127 12.604 16.124 C 12.607 16.121 12.61 16.118 12.613 16.115 C 12.616 16.112 12.619 16.109 12.622 16.106 C 12.625 16.103 12.628 16.1 12.631 16.097 C 12.634 16.094 12.637 16.091 12.64 16.088 C 12.643 16.085 12.646 16.082 12.649 16.079 C 12.652 16.076 12.655 16.073 12.658 16.07 C 12.661 16.067 12.664 16.064 12.667 16.061 C 12.67 16.058 12.673 16.055 12.676 16.052 C 12.679 16.049 12.682 16.046 12.685 16.043 C 12.687 16.04 12.69 16.037 12.693 16.035 C 12.696 16.032 12.699 16.029 12.702 16.026 C 12.705 16.023 12.708 16.02 12.711 16.017 C 12.714 16.014 12.717 16.011 12.72 16.008 C 12.723 16.005 12.726 16.002 12.729 15.999 C 12.732 15.996 12.735 15.993 12.738 15.99 C 12.741 15.987 12.744 15.984 12.747 15.981 C 12.75 15.978 12.753 15.975 12.755 15.972 C 12.758 15.97 12.761 15.967 12.764 15.964 C 12.767 15.961 12.77 15.958 12.773 15.955 C 12.776 15.952 12.779 15.949 12.782 15.946 C 12.785 15.943 12.788 15.94 12.791 15.937 C 12.794 15.934 12.797 15.931 12.8 15.928 C 12.802 15.925 12.805 15.923 12.808 15.92 C 12.811 15.917 12.814 15.914 12.817 15.911 C 12.82 15.908 12.823 15.905 12.826 15.902 C 12.829 15.899 12.832 15.896 12.835 15.893 C 12.838 15.89 12.841 15.887 12.843 15.884 C 12.846 15.882 12.849 15.879 12.852 15.876 C 12.855 15.873 12.858 15.87 12.861 15.867 C 12.864 15.864 12.867 15.861 12.87 15.858 C 12.873 15.855 12.875 15.852 12.878 15.85 C 12.881 15.847 12.884 15.844 12.887 15.841 C 12.89 15.838 12.893 15.835 12.896 15.832 C 12.899 15.829 12.902 15.826 12.905 15.823 C 12.907 15.82 12.91 15.818 12.913 15.815 C 12.916 15.812 12.919 15.809 12.922 15.806 C 12.925 15.803 12.928 15.8 12.931 15.797 C 12.933 15.794 12.936 15.792 12.939 15.789 C 12.942 15.786 12.945 15.783 12.948 15.78 C 12.951 15.777 12.954 15.774 12.957 15.771 C 12.959 15.768 12.962 15.766 12.965 15.763 C 12.968 15.76 12.971 15.757 12.974 15.754 C 12.977 15.751 12.98 15.748 12.982 15.745 C 12.985 15.743 12.988 15.74 12.991 15.737 C 12.994 15.734 12.997 15.731 13 15.728 C 13.003 15.725 13.005 15.723 13.008 15.72 C 13.011 15.717 13.014 15.714 13.017 15.711 C 13.02 15.708 13.023 15.705 13.025 15.703 C 13.028 15.7 13.031 15.697 13.034 15.694 C 13.037 15.691 13.04 15.688 13.043 15.685 C 13.045 15.683 13.048 15.68 13.051 15.677 C 13.054 15.674 13.057 15.671 13.06 15.668 C 13.062 15.665 13.065 15.663 13.068 15.66 C 13.071 15.657 13.074 15.654 13.077 15.651 C 13.079 15.648 13.082 15.646 13.085 15.643 C 13.088 15.64 13.091 15.637 13.094 15.634 C 13.096 15.631 13.099 15.629 13.102 15.626 C 13.105 15.623 13.108 15.62 13.111 15.617 C 13.113 15.615 13.116 15.612 13.119 15.609 C 13.122 15.606 13.125 15.603 13.127 15.6 C 13.13 15.598 13.133 15.595 13.136 15.592 C 13.139 15.589 13.142 15.586 13.144 15.584 C 13.147 15.581 13.15 15.578 13.153 15.575 C 13.156 15.572 13.158 15.57 13.161 15.567 C 13.164 15.564 13.167 15.561 13.17 15.558 C 13.172 15.556 13.175 15.553 13.178 15.55 C 13.181 15.547 13.184 15.544 13.186 15.542 C 13.189 15.539 13.192 15.536 13.195 15.533 C 13.197 15.53 13.2 15.528 13.203 15.525 C 13.206 15.522 13.209 15.519 13.211 15.517 C 13.214 15.514 13.217 15.511 13.22 15.508 C 13.222 15.505 13.225 15.503 13.228 15.5 C 13.231 15.497 13.234 15.494 13.236 15.492 C 13.239 15.489 13.242 15.486 13.245 15.483 C 13.247 15.481 13.25 15.478 13.253 15.475 C 13.256 15.472 13.258 15.47 13.261 15.467 C 13.264 15.464 13.267 15.461 13.269 15.459 C 13.272 15.456 13.275 15.453 13.278 15.45 C 13.28 15.448 13.283 15.445 13.286 15.442 C 13.289 15.439 13.291 15.437 13.294 15.434 C 13.297 15.431 13.3 15.428 13.302 15.426 C 13.305 15.423 13.308 15.42 13.31 15.417 C 13.313 15.415 13.316 15.412 13.319 15.409 C 13.321 15.407 13.324 15.404 13.327 15.401 C 13.33 15.398 13.332 15.396 13.335 15.393 C 13.338 15.39 13.34 15.388 13.343 15.385 C 13.346 15.382 13.349 15.379 13.351 15.377 C 13.354 15.374 13.357 15.371 13.359 15.369 C 13.362 15.366 13.365 15.363 13.367 15.36 C 13.37 15.358 13.373 15.355 13.376 15.352 C 13.378 15.35 13.381 15.347 13.384 15.344 C 13.386 15.342 13.389 15.339 13.392 15.336 C 13.394 15.334 13.397 15.331 13.4 15.328 C 13.402 15.325 13.405 15.323 13.408 15.32 C 13.41 15.317 13.413 15.315 13.416 15.312 C 13.419 15.309 13.421 15.307 13.424 15.304 C 13.427 15.301 13.429 15.299 13.432 15.296 C 13.435 15.293 13.437 15.291 13.44 15.288 C 13.443 15.285 13.445 15.283 13.448 15.28 C 13.45 15.277 13.453 15.275 13.456 15.272 C 13.458 15.269 13.461 15.267 13.464 15.264 C 13.466 15.262 13.469 15.259 13.472 15.256 C 13.474 15.254 13.477 15.251 13.48 15.248 C 13.482 15.246 13.485 15.243 13.487 15.24 C 13.49 15.238 13.493 15.235 13.495 15.233 C 13.498 15.23 13.501 15.227 13.503 15.225 C 13.506 15.222 13.509 15.219 13.511 15.217 C 13.514 15.214 13.516 15.212 13.519 15.209 C 13.522 15.206 13.524 15.204 13.527 15.201 C 13.529 15.199 13.532 15.196 13.535 15.193 C 13.537 15.191 13.54 15.188 13.542 15.185 C 13.545 15.183 13.548 15.18 13.55 15.178 C 13.553 15.175 13.555 15.173 13.558 15.17 C 13.561 15.167 13.563 15.165 13.566 15.162 C 13.568 15.16 13.571 15.157 13.574 15.154 C 13.576 15.152 13.579 15.149 13.581 15.147 C 13.584 15.144 13.586 15.142 13.589 15.139 C 13.592 15.136 13.594 15.134 13.597 15.131 C 13.599 15.129 13.602 15.126 13.604 15.124 C 13.607 15.121 13.609 15.118 13.612 15.116 C 13.615 15.113 13.617 15.111 13.62 15.108 C 13.622 15.106 13.625 15.103 13.627 15.101 C 13.63 15.098 13.632 15.096 13.635 15.093 C 13.637 15.09 13.64 15.088 13.643 15.085 C 13.645 15.083 13.648 15.08 13.65 15.078 C 13.653 15.075 13.655 15.073 13.658 15.07 C 13.66 15.068 13.663 15.065 13.665 15.063 C 13.668 15.06 13.67 15.058 13.673 15.055 C 13.675 15.053 13.678 15.05 13.68 15.048 C 13.683 15.045 13.685 15.043 13.688 15.04 C 13.69 15.038 13.693 15.035 13.695 15.033 C 13.698 15.03 13.7 15.028 13.703 15.025 C 13.705 15.023 13.708 15.02 13.71 15.018 C 13.713 15.015 13.715 15.013 13.718 15.01 C 13.72 15.008 13.723 15.005 13.725 15.003 C 13.728 15 13.73 14.998 13.733 14.995 C 13.735 14.993 13.738 14.99 13.74 14.988 C 13.743 14.985 13.745 14.983 13.747 14.98 C 13.75 14.978 13.752 14.976 13.755 14.973 C 13.757 14.971 13.76 14.968 13.762 14.966 C 13.765 14.963 13.767 14.961 13.77 14.958 C 13.772 14.956 13.774 14.953 13.777 14.951 C 13.779 14.949 13.782 14.946 13.784 14.944 C 13.787 14.941 13.789 14.939 13.791 14.936 C 13.794 14.934 13.796 14.932 13.799 14.929 C 13.801 14.927 13.804 14.924 13.806 14.922 C 13.808 14.92 13.811 14.917 13.813 14.915 C 13.816 14.912 13.818 14.91 13.82 14.907 C 13.823 14.905 13.825 14.903 13.828 14.9 C 13.83 14.898 13.832 14.895 13.835 14.893 C 13.837 14.891 13.84 14.888 13.842 14.886 C 13.844 14.884 13.847 14.881 13.849 14.879 C 13.852 14.876 13.854 14.874 13.856 14.872 C 13.859 14.869 13.861 14.867 13.863 14.865 C 13.866 14.862 13.868 14.86 13.871 14.857 C 13.873 14.855 13.875 14.853 13.878 14.85 C 13.88 14.848 13.882 14.846 13.885 14.843 C 13.887 14.841 13.889 14.839 13.892 14.836 C 13.894 14.834 13.896 14.832 13.899 14.829 C 13.901 14.827 13.903 14.825 13.906 14.822 C 13.908 14.82 13.91 14.818 13.913 14.815 C 13.915 14.813 13.917 14.811 13.92 14.808 C 13.922 14.806 13.924 14.804 13.927 14.801 C 13.929 14.799 13.931 14.797 13.934 14.794 C 13.936 14.792 13.938 14.79 13.941 14.787 C 13.943 14.785 13.945 14.783 13.947 14.781 C 13.95 14.778 13.952 14.776 13.954 14.774 C 13.957 14.771 13.959 14.769 13.961 14.767 C 13.963 14.764 13.966 14.762 13.968 14.76 C 13.97 14.758 13.973 14.755 13.975 14.753 C 13.977 14.751 13.979 14.749 13.982 14.746 C 13.984 14.744 13.986 14.742 13.988 14.739 C 13.991 14.737 13.993 14.735 13.995 14.733 C 13.997 14.73 14 14.728 14.002 14.726 C 14.004 14.724 14.006 14.721 14.009 14.719 C 14.011 14.717 14.013 14.715 14.015 14.713 C 14.018 14.71 14.02 14.708 14.022 14.706 C 14.024 14.704 14.027 14.701 14.029 14.699 C 14.031 14.697 14.033 14.695 14.035 14.693 C 14.038 14.69 14.04 14.688 14.042 14.686 C 14.044 14.684 14.046 14.681 14.049 14.679 C 14.051 14.677 14.053 14.675 14.055 14.673 C 14.057 14.67 14.06 14.668 14.062 14.666 C 14.064 14.664 14.066 14.662 14.068 14.66 C 14.071 14.657 14.073 14.655 14.075 14.653 C 14.077 14.651 14.079 14.649 14.081 14.646 C 14.084 14.644 14.086 14.642 14.088 14.64 C 14.09 14.638 14.092 14.636 14.094 14.633 C 14.097 14.631 14.099 14.629 14.101 14.627 C 14.103 14.625 14.105 14.623 14.107 14.621 C 14.109 14.618 14.112 14.616 14.114 14.614 C 14.116 14.612 14.118 14.61 14.12 14.608 C 14.122 14.606 14.124 14.604 14.127 14.601 C 14.129 14.599 14.131 14.597 14.133 14.595 C 14.135 14.593 14.137 14.591 14.139 14.589 C 14.141 14.587 14.143 14.585 14.146 14.582 C 14.148 14.58 14.15 14.578 14.152 14.576 C 14.154 14.574 14.156 14.572 14.158 14.57 C 14.16 14.568 14.162 14.566 14.164 14.564 C 14.166 14.562 14.168 14.559 14.171 14.557 C 14.173 14.555 14.175 14.553 14.177 14.551 C 14.179 14.549 14.181 14.547 14.183 14.545 C 14.185 14.543 14.187 14.541 14.189 14.539 C 14.191 14.537 14.193 14.535 14.195 14.533 C 14.197 14.531 14.199 14.529 14.201 14.527 C 14.203 14.524 14.205 14.522 14.207 14.52 C 14.21 14.518 14.212 14.516 14.214 14.514 C 14.216 14.512 14.218 14.51 14.22 14.508 C 14.222 14.506 14.224 14.504 14.226 14.502 C 14.228 14.5 14.23 14.498 14.232 14.496 C 14.234 14.494 14.236 14.492 14.238 14.49 C 14.24 14.488 14.242 14.486 14.244 14.484 C 14.246 14.482 14.248 14.48 14.25 14.478 C 14.252 14.476 14.254 14.474 14.256 14.472 C 14.258 14.47 14.259 14.468 14.261 14.466 C 14.263 14.464 14.265 14.463 14.267 14.461 C 14.269 14.459 14.271 14.457 14.273 14.455 C 14.275 14.453 14.277 14.451 14.279 14.449 C 14.281 14.447 14.283 14.445 14.285 14.443 C 14.287 14.441 14.289 14.439 14.291 14.437 C 14.293 14.435 14.295 14.433 14.296 14.431 C 14.298 14.43 14.3 14.428 14.302 14.426 C 14.304 14.424 14.306 14.422 14.308 14.42 C 14.31 14.418 14.312 14.416 14.314 14.414 C 14.316 14.412 14.317 14.41 14.319 14.409 C 14.321 14.407 14.323 14.405 14.325 14.403 C 14.327 14.401 14.329 14.399 14.331 14.397 C 14.332 14.395 14.334 14.394 14.336 14.392 C 14.338 14.39 14.34 14.388 14.342 14.386 C 14.344 14.384 14.346 14.382 14.347 14.381 C 14.349 14.379 14.351 14.377 14.353 14.375 C 14.355 14.373 14.357 14.371 14.358 14.369 C 14.36 14.368 14.362 14.366 14.364 14.364 L 12.95 12.95 Z M 7.294 17.193 C 5.969 15.869 4.049 13.948 3.05 12.95 L 1.636 14.364 C 2.634 15.362 4.555 17.283 5.88 18.607 L 7.294 17.193 Z M 10 8 C 10 9.105 9.105 10 8 10 L 8 12 C 10.209 12 12 10.209 12 8 L 10 8 Z M 8 10 C 6.895 10 6 9.105 6 8 L 4 8 C 4 10.209 5.791 12 8 12 L 8 10 Z M 6 8 C 6 6.895 6.895 6 8 6 L 8 4 C 5.791 4 4 5.791 4 8 L 6 8 Z M 8 6 C 9.105 6 10 6.895 10 8 L 12 8 C 12 5.791 10.209 4 8 4 L 8 6 Z M 8.707 17.193 C 8.316 17.584 7.684 17.583 7.294 17.193 L 5.88 18.607 C 7.051 19.779 8.95 19.778 10.121 18.607 L 8.707 17.193 Z" fill="currentColor" fill-rule="nonzero"></path>
</svg>