<svg xmlns="http://www.w3.org/2000/svg" width="16" height="18" viewBox="0 0 16 18" fill="none">
  <path d="M 12 8 L 12 9 L 13 9 L 13 8 L 12 8 Z M 4 8 L 3 8 L 3 9 L 4 9 L 4 8 Z M 9 12 C 9 11.448 8.552 11 8 11 C 7.448 11 7 11.448 7 12 L 9 12 Z M 7 14 C 7 14.552 7.448 15 8 15 C 8.552 15 9 14.552 9 14 L 7 14 Z M 2 9 L 14 9 L 14 7 L 2 7 L 2 9 Z M 15 10 L 15 16 L 17 16 L 17 10 L 15 10 Z M 14 17 L 2 17 L 2 19 L 14 19 L 14 17 Z M 1 16 L 1 10 L -1 10 L -1 16 L 1 16 Z M 2 17 C 1.448 17 1 16.552 1 16 L -1 16 C -1 17.657 0.343 19 2 19 L 2 17 Z M 15 16 C 15 16.552 14.552 17 14 17 L 14 19 C 15.657 19 17 17.657 17 16 L 15 16 Z M 14 9 C 14.552 9 15 9.448 15 10 L 17 10 C 17 8.343 15.657 7 14 7 L 14 9 Z M 2 7 C 0.343 7 -1 8.343 -1 10 L 1 10 C 1 9.448 1.448 9 2 9 L 2 7 Z M 11 4 L 11 8 L 13 8 L 13 4 L 11 4 Z M 12 7 L 4 7 L 4 9 L 12 9 L 12 7 Z M 5 8 L 5 4 L 3 4 L 3 8 L 5 8 Z M 8 1 C 9.657 1 11 2.343 11 4 L 13 4 C 13 1.239 10.761 -1 8 -1 L 8 1 Z M 8 -1 C 5.239 -1 3 1.239 3 4 L 5 4 C 5 2.343 6.343 1 8 1 L 8 -1 Z M 7 12 L 7 14 L 9 14 L 9 12 L 7 12 Z" fill="currentColor" fill-rule="nonzero"></path>
</svg>