<svg xmlns="http://www.w3.org/2000/svg" width="18" height="14" viewBox="0 0 18 14" fill="none">
  <path d="M 0.555 2.168 C 0.095 1.862 -0.526 1.986 -0.832 2.445 C -1.138 2.905 -1.014 3.526 -0.555 3.832 L 0.555 2.168 Z M 7.891 8.26 L 7.336 9.092 L 7.336 9.092 L 7.891 8.26 Z M 10.109 8.26 L 9.555 7.428 L 9.555 7.428 L 10.109 8.26 Z M 18.555 3.832 C 19.014 3.526 19.138 2.905 18.832 2.445 C 18.526 1.986 17.905 1.862 17.445 2.168 L 18.555 3.832 Z M 2 1 L 16 1 L 16 -1 L 2 -1 L 2 1 Z M 17 2 L 17 12 L 19 12 L 19 2 L 17 2 Z M 16 13 L 2 13 L 2 15 L 16 15 L 16 13 Z M 1 12 L 1 2 L -1 2 L -1 12 L 1 12 Z M 2 13 C 1.448 13 1 12.552 1 12 L -1 12 C -1 13.657 0.343 15 2 15 L 2 13 Z M 17 12 C 17 12.552 16.552 13 16 13 L 16 15 C 17.657 15 19 13.657 19 12 L 17 12 Z M 16 1 C 16.552 1 17 1.448 17 2 L 19 2 C 19 0.343 17.657 -1 16 -1 L 16 1 Z M 2 -1 C 0.343 -1 -1 0.343 -1 2 L 1 2 C 1 1.448 1.448 1 2 1 L 2 -1 Z M -0.555 3.832 L 7.336 9.092 L 8.445 7.428 L 0.555 2.168 L -0.555 3.832 Z M 10.664 9.092 L 18.555 3.832 L 17.445 2.168 L 9.555 7.428 L 10.664 9.092 Z M 7.336 9.092 C 8.344 9.764 9.656 9.764 10.664 9.092 L 9.555 7.428 C 9.219 7.652 8.781 7.652 8.445 7.428 L 7.336 9.092 Z" fill="currentColor" fill-rule="nonzero"></path>
</svg>