<svg xmlns="http://www.w3.org/2000/svg" width="14" height="20" viewBox="0 0 14 20" fill="none">
  <path d="M 15 9 C 15 8.448 14.552 8 14 8 C 13.448 8 13 8.448 13 9 L 15 9 Z M 1 9 C 1 8.448 0.552 8 0 8 C -0.552 8 -1 8.448 -1 9 L 1 9 Z M 3 19 C 2.448 19 2 19.448 2 20 C 2 20.552 2.448 21 3 21 L 3 19 Z M 11 21 C 11.552 21 12 20.552 12 20 C 12 19.448 11.552 19 11 19 L 11 21 Z M 9 3 L 9 9 L 11 9 L 11 3 L 9 3 Z M 5 9 L 5 3 L 3 3 L 3 9 L 5 9 Z M 7 11 C 5.895 11 5 10.105 5 9 L 3 9 C 3 11.209 4.791 13 7 13 L 7 11 Z M 9 9 C 9 10.105 8.105 11 7 11 L 7 13 C 9.209 13 11 11.209 11 9 L 9 9 Z M 7 1 C 8.105 1 9 1.895 9 3 L 11 3 C 11 0.791 9.209 -1 7 -1 L 7 1 Z M 7 -1 C 4.791 -1 3 0.791 3 3 L 5 3 C 5 1.895 5.895 1 7 1 L 7 -1 Z M 13 9 C 13 12.314 10.314 15 7 15 L 7 17 C 11.418 17 15 13.418 15 9 L 13 9 Z M 7 15 C 3.686 15 1 12.314 1 9 L -1 9 C -1 13.418 2.582 17 7 17 L 7 15 Z M 6 16 L 6 20 L 8 20 L 8 16 L 6 16 Z M 3 21 L 7 21 L 7 19 L 3 19 L 3 21 Z M 7 21 L 11 21 L 11 19 L 7 19 L 7 21 Z" fill="currentColor" fill-rule="nonzero"></path>
</svg>