<svg xmlns="http://www.w3.org/2000/svg" width="18" height="18.035" viewBox="0 0 18 18.035" fill="none">
  <path d="M 17.268 0.732 L 17.975 0.025 L 17.975 0.025 L 17.268 0.732 Z M 3.5 18.035 L 3.5 19.035 C 3.765 19.035 4.02 18.93 4.207 18.743 L 3.5 18.035 Z M 0 18.035 L -1 18.035 C -1 18.588 -0.552 19.035 0 19.035 L 0 18.035 Z M 0 14.464 L -0.707 13.757 C -0.895 13.945 -1 14.199 -1 14.464 L 0 14.464 Z M 12.939 1.525 C 12.549 1.135 11.916 1.135 11.525 1.525 C 11.135 1.916 11.135 2.549 11.525 2.939 L 12.939 1.525 Z M 15.061 6.475 C 15.451 6.865 16.084 6.865 16.475 6.475 C 16.865 6.084 16.865 5.451 16.475 5.061 L 15.061 6.475 Z M 14.439 1.439 C 15.025 0.854 15.975 0.854 16.561 1.439 L 17.975 0.025 C 16.608 -1.342 14.392 -1.342 13.025 0.025 L 14.439 1.439 Z M 16.561 1.439 C 17.146 2.025 17.146 2.975 16.561 3.561 L 17.975 4.975 C 19.342 3.608 19.342 1.392 17.975 0.025 L 16.561 1.439 Z M 16.561 3.561 L 2.793 17.328 L 4.207 18.743 L 17.975 4.975 L 16.561 3.561 Z M 3.5 17.035 L 0 17.035 L 0 19.035 L 3.5 19.035 L 3.5 17.035 Z M 13.025 0.025 L -0.707 13.757 L 0.707 15.172 L 14.439 1.439 L 13.025 0.025 Z M -1 14.464 L -1 18.035 L 1 18.035 L 1 14.464 L -1 14.464 Z M 11.525 2.939 L 15.061 6.475 L 16.475 5.061 L 12.939 1.525 L 11.525 2.939 Z" fill="currentColor" fill-rule="nonzero"></path>
</svg>