<svg xmlns="http://www.w3.org/2000/svg" width="17" height="17" viewBox="0 0 17 17" fill="none">
  <path d="M 7 3 C 7.552 3 8 2.552 8 2 C 8 1.448 7.552 1 7 1 L 7 3 Z M 16 10 C 16 9.448 15.552 9 15 9 C 14.448 9 14 9.448 14 10 L 16 10 Z M 13.586 0.586 L 14.293 1.293 L 14.293 1.293 L 13.586 0.586 Z M 16.414 3.414 L 15.707 2.707 L 16.414 3.414 Z M 5 9.172 L 4.293 8.464 C 4.105 8.652 4 8.906 4 9.172 L 5 9.172 Z M 5 12 L 4 12 C 4 12.552 4.448 13 5 13 L 5 12 Z M 7.828 12 L 7.828 13 C 8.094 13 8.348 12.895 8.536 12.707 L 7.828 12 Z M 13 16 L 2 16 L 2 18 L 13 18 L 13 16 Z M 1 15 L 1 4 L -1 4 L -1 15 L 1 15 Z M 2 3 L 7 3 L 7 1 L 2 1 L 2 3 Z M 14 10 L 14 15 L 16 15 L 16 10 L 14 10 Z M 2 16 C 1.448 16 1 15.552 1 15 L -1 15 C -1 16.657 0.343 18 2 18 L 2 16 Z M 13 18 C 14.657 18 16 16.657 16 15 L 14 15 C 14 15.552 13.552 16 13 16 L 13 18 Z M 1 4 C 1 3.448 1.448 3 2 3 L 2 1 C 0.343 1 -1 2.343 -1 4 L 1 4 Z M 14.293 1.293 C 14.683 0.902 15.317 0.902 15.707 1.293 L 17.121 -0.121 C 15.95 -1.293 14.05 -1.293 12.879 -0.121 L 14.293 1.293 Z M 15.707 1.293 C 16.098 1.683 16.098 2.317 15.707 2.707 L 17.121 4.121 C 18.293 2.95 18.293 1.05 17.121 -0.121 L 15.707 1.293 Z M 12.879 -0.121 L 4.293 8.464 L 5.707 9.879 L 14.293 1.293 L 12.879 -0.121 Z M 4 9.172 L 4 12 L 6 12 L 6 9.172 L 4 9.172 Z M 15.707 2.707 L 7.121 11.293 L 8.536 12.707 L 17.121 4.121 L 15.707 2.707 Z M 7.828 11 L 5 11 L 5 13 L 7.828 13 L 7.828 11 Z" fill="currentColor" fill-rule="nonzero"></path>
</svg>