<svg xmlns="http://www.w3.org/2000/svg" width="18" height="18" viewBox="0 0 18 18" fill="none">
  <path d="M 6.228 0.684 L 5.279 1 L 5.279 1 L 6.228 0.684 Z M 7.726 5.177 L 6.777 5.493 L 6.777 5.493 L 7.726 5.177 Z M 7.224 6.388 L 7.671 7.282 L 7.671 7.282 L 7.224 6.388 Z M 4.967 7.516 L 4.52 6.622 C 4.04 6.862 3.835 7.438 4.055 7.928 L 4.967 7.516 Z M 10.484 13.033 L 10.072 13.945 C 10.562 14.165 11.138 13.96 11.378 13.48 L 10.484 13.033 Z M 11.612 10.776 L 10.718 10.329 L 10.718 10.329 L 11.612 10.776 Z M 12.823 10.274 L 12.507 11.223 L 12.507 11.223 L 12.823 10.274 Z M 17.316 11.772 L 17.632 10.823 L 17.632 10.823 L 17.316 11.772 Z M 2 -1 C 0.343 -1 -1 0.343 -1 2 L 1 2 C 1 1.448 1.448 1 2 1 L 2 -1 Z M 5.279 -1 L 2 -1 L 2 1 L 5.279 1 L 5.279 -1 Z M 7.177 0.368 C 6.904 -0.449 6.14 -1 5.279 -1 L 5.279 1 L 5.279 1 L 7.177 0.368 Z M 8.674 4.861 L 7.177 0.368 L 5.279 1 L 6.777 5.493 L 8.674 4.861 Z M 7.671 7.282 C 8.562 6.837 8.989 5.805 8.674 4.861 L 6.777 5.493 L 6.777 5.493 L 7.671 7.282 Z M 5.414 8.411 L 7.671 7.282 L 6.777 5.493 L 4.52 6.622 L 5.414 8.411 Z M 10.895 12.121 C 8.672 11.119 6.881 9.328 5.879 7.105 L 4.055 7.928 C 5.258 10.595 7.405 12.742 10.072 13.945 L 10.895 12.121 Z M 10.718 10.329 L 9.589 12.586 L 11.378 13.48 L 12.507 11.223 L 10.718 10.329 Z M 13.139 9.326 C 12.195 9.011 11.163 9.438 10.718 10.329 L 12.507 11.223 L 12.507 11.223 L 13.139 9.326 Z M 17.632 10.823 L 13.139 9.326 L 12.507 11.223 L 17 12.721 L 17.632 10.823 Z M 19 12.721 C 19 11.86 18.449 11.096 17.632 10.823 L 17 12.721 L 17 12.721 L 19 12.721 Z M 19 16 L 19 12.721 L 17 12.721 L 17 16 L 19 16 Z M 16 19 C 17.657 19 19 17.657 19 16 L 17 16 C 17 16.552 16.552 17 16 17 L 16 19 Z M 15 19 L 16 19 L 16 17 L 15 17 L 15 19 Z M -1 3 C -1 11.837 6.163 19 15 19 L 15 17 C 7.268 17 1 10.732 1 3 L -1 3 Z M -1 2 L -1 3 L 1 3 L 1 2 L -1 2 Z" fill="currentColor" fill-rule="nonzero"></path>
</svg>