<svg xmlns="http://www.w3.org/2000/svg" width="16" height="16" viewBox="0 0 16 16" fill="none">
  <path d="M -0.707 11.293 C -1.098 11.683 -1.098 12.317 -0.707 12.707 C -0.317 13.098 0.317 13.098 0.707 12.707 L -0.707 11.293 Z M 4.586 7.414 L 5.293 8.121 L 5.293 8.121 L 4.586 7.414 Z M 7.414 7.414 L 8.121 6.707 L 8.121 6.707 L 7.414 7.414 Z M 11.293 12.707 C 11.683 13.098 12.317 13.098 12.707 12.707 C 13.098 12.317 13.098 11.683 12.707 11.293 L 11.293 12.707 Z M 9.293 9.293 C 8.902 9.683 8.902 10.317 9.293 10.707 C 9.683 11.098 10.317 11.098 10.707 10.707 L 9.293 9.293 Z M 14.414 8.414 L 13.707 9.121 L 13.707 9.121 L 14.414 8.414 Z M 15.293 10.707 C 15.683 11.098 16.317 11.098 16.707 10.707 C 17.098 10.317 17.098 9.683 16.707 9.293 L 15.293 10.707 Z M 10 3 C 9.448 3 9 3.448 9 4 C 9 4.552 9.448 5 10 5 L 10 3 Z M 10.01 5 C 10.562 5 11.01 4.552 11.01 4 C 11.01 3.448 10.562 3 10.01 3 L 10.01 5 Z M 2 1 L 14 1 L 14 -1 L 2 -1 L 2 1 Z M 15 2 L 15 14 L 17 14 L 17 2 L 15 2 Z M 14 15 L 2 15 L 2 17 L 14 17 L 14 15 Z M 1 14 L 1 2 L -1 2 L -1 14 L 1 14 Z M 2 15 C 1.448 15 1 14.552 1 14 L -1 14 C -1 15.657 0.343 17 2 17 L 2 15 Z M 15 14 C 15 14.552 14.552 15 14 15 L 14 17 C 15.657 17 17 15.657 17 14 L 15 14 Z M 14 1 C 14.552 1 15 1.448 15 2 L 17 2 C 17 0.343 15.657 -1 14 -1 L 14 1 Z M 2 -1 C 0.343 -1 -1 0.343 -1 2 L 1 2 C 1 1.448 1.448 1 2 1 L 2 -1 Z M 0.707 12.707 L 5.293 8.121 L 3.879 6.707 L -0.707 11.293 L 0.707 12.707 Z M 6.707 8.121 L 11.293 12.707 L 12.707 11.293 L 8.121 6.707 L 6.707 8.121 Z M 5.293 8.121 C 5.683 7.731 6.317 7.731 6.707 8.121 L 8.121 6.707 C 6.95 5.536 5.05 5.536 3.879 6.707 L 5.293 8.121 Z M 10.707 10.707 L 12.293 9.121 L 10.879 7.707 L 9.293 9.293 L 10.707 10.707 Z M 13.707 9.121 L 15.293 10.707 L 16.707 9.293 L 15.121 7.707 L 13.707 9.121 Z M 12.293 9.121 C 12.683 8.731 13.317 8.731 13.707 9.121 L 15.121 7.707 C 13.95 6.536 12.05 6.536 10.879 7.707 L 12.293 9.121 Z M 10 5 L 10.01 5 L 10.01 3 L 10 3 L 10 5 Z" fill="currentColor" fill-rule="nonzero"></path>
</svg>