<svg xmlns="http://www.w3.org/2000/svg" width="18" height="18" viewBox="0 0 18 18" fill="none">
  <path d="M 10 6 C 10 5.448 9.552 5 9 5 C 8.448 5 8 5.448 8 6 L 10 6 Z M 8 12 C 8 12.552 8.448 13 9 13 C 9.552 13 10 12.552 10 12 L 8 12 Z M 12 10 C 12.552 10 13 9.552 13 9 C 13 8.448 12.552 8 12 8 L 12 10 Z M 6 8 C 5.448 8 5 8.448 5 9 C 5 9.552 5.448 10 6 10 L 6 8 Z M 8 6 L 8 9 L 10 9 L 10 6 L 8 6 Z M 8 9 L 8 12 L 10 12 L 10 9 L 8 9 Z M 12 8 L 9 8 L 9 10 L 12 10 L 12 8 Z M 9 8 L 6 8 L 6 10 L 9 10 L 9 8 Z M 17 9 C 17 13.418 13.418 17 9 17 L 9 19 C 14.523 19 19 14.523 19 9 L 17 9 Z M 9 17 C 4.582 17 1 13.418 1 9 L -1 9 C -1 14.523 3.477 19 9 19 L 9 17 Z M 1 9 C 1 4.582 4.582 1 9 1 L 9 -1 C 3.477 -1 -1 3.477 -1 9 L 1 9 Z M 9 1 C 13.418 1 17 4.582 17 9 L 19 9 C 19 3.477 14.523 -1 9 -1 L 9 1 Z" fill="currentColor" fill-rule="nonzero"></path>
</svg>