<svg xmlns="http://www.w3.org/2000/svg" width="18" height="18" viewBox="0 0 18 18" fill="none">
  <path d="M 17.293 18.707 C 17.683 19.098 18.317 19.098 18.707 18.707 C 19.098 18.317 19.098 17.683 18.707 17.293 L 17.293 18.707 Z M 12.707 11.293 C 12.317 10.902 11.683 10.902 11.293 11.293 C 10.902 11.683 10.902 12.317 11.293 12.707 L 12.707 11.293 Z M 13 7 C 13 10.314 10.314 13 7 13 L 7 15 C 11.418 15 15 11.418 15 7 L 13 7 Z M 7 13 C 3.686 13 1 10.314 1 7 L -1 7 C -1 11.418 2.582 15 7 15 L 7 13 Z M 1 7 C 1 3.686 3.686 1 7 1 L 7 -1 C 2.582 -1 -1 2.582 -1 7 L 1 7 Z M 7 1 C 10.314 1 13 3.686 13 7 L 15 7 C 15 2.582 11.418 -1 7 -1 L 7 1 Z M 18.707 17.293 L 12.707 11.293 L 11.293 12.707 L 17.293 18.707 L 18.707 17.293 Z" fill="currentColor" fill-rule="nonzero"></path>
</svg>