<svg xmlns="http://www.w3.org/2000/svg" width="8" height="14" viewBox="0 0 8 14" fill="none">
  <path d="M -0.707 3.293 C -1.098 3.683 -1.098 4.317 -0.707 4.707 C -0.317 5.098 0.317 5.098 0.707 4.707 L -0.707 3.293 Z M 4 0 L 4.707 -0.707 C 4.52 -0.895 4.265 -1 4 -1 C 3.735 -1 3.48 -0.895 3.293 -0.707 L 4 0 Z M 7.293 4.707 C 7.683 5.098 8.317 5.098 8.707 4.707 C 9.098 4.317 9.098 3.683 8.707 3.293 L 7.293 4.707 Z M 8.707 10.707 C 9.098 10.317 9.098 9.683 8.707 9.293 C 8.317 8.902 7.683 8.902 7.293 9.293 L 8.707 10.707 Z M 4 14 L 3.293 14.707 C 3.683 15.098 4.317 15.098 4.707 14.707 L 4 14 Z M 0.707 9.293 C 0.317 8.902 -0.317 8.902 -0.707 9.293 C -1.098 9.683 -1.098 10.317 -0.707 10.707 L 0.707 9.293 Z M 0.707 4.707 L 4.707 0.707 L 3.293 -0.707 L -0.707 3.293 L 0.707 4.707 Z M 3.293 0.707 L 7.293 4.707 L 8.707 3.293 L 4.707 -0.707 L 3.293 0.707 Z M 7.293 9.293 L 3.293 13.293 L 4.707 14.707 L 8.707 10.707 L 7.293 9.293 Z M 4.707 13.293 L 0.707 9.293 L -0.707 10.707 L 3.293 14.707 L 4.707 13.293 Z" fill="currentColor" fill-rule="nonzero"></path>
</svg>