<svg xmlns="http://www.w3.org/2000/svg" width="18" height="18" viewBox="0 0 18 18" fill="none">
  <path d="M 17 3 C 17 4.105 16.105 5 15 5 L 15 7 C 17.209 7 19 5.209 19 3 L 17 3 Z M 13 3 C 13 1.895 13.895 1 15 1 L 15 -1 C 12.791 -1 11 0.791 11 3 L 13 3 Z M 15 1 C 16.105 1 17 1.895 17 3 L 19 3 C 19 0.791 17.209 -1 15 -1 L 15 1 Z M 17 15 C 17 16.105 16.105 17 15 17 L 15 19 C 17.209 19 19 17.209 19 15 L 17 15 Z M 15 17 C 13.895 17 13 16.105 13 15 L 11 15 C 11 17.209 12.791 19 15 19 L 15 17 Z M 15 13 C 16.105 13 17 13.895 17 15 L 19 15 C 19 12.791 17.209 11 15 11 L 15 13 Z M 3 11 C 1.895 11 1 10.105 1 9 L -1 9 C -1 11.209 0.791 13 3 13 L 3 11 Z M 1 9 C 1 7.895 1.895 7 3 7 L 3 5 C 0.791 5 -1 6.791 -1 9 L 1 9 Z M 5 9 C 5 9.323 4.924 9.626 4.79 9.894 L 6.578 10.79 C 6.848 10.25 7 9.641 7 9 L 5 9 Z M 4.79 9.894 C 4.46 10.552 3.782 11 3 11 L 3 13 C 4.567 13 5.922 12.098 6.578 10.79 L 4.79 9.894 Z M 3 7 C 3.782 7 4.46 7.448 4.79 8.106 L 6.578 7.21 C 5.922 5.902 4.567 5 3 5 L 3 7 Z M 4.79 8.106 C 4.924 8.374 5 8.677 5 9 L 7 9 C 7 8.359 6.848 7.75 6.578 7.21 L 4.79 8.106 Z M 6.131 8.552 L 12.763 5.236 L 11.869 3.448 L 5.237 6.764 L 6.131 8.552 Z M 15 5 C 14.218 5 13.54 4.552 13.21 3.894 L 11.422 4.79 C 12.078 6.098 13.433 7 15 7 L 15 5 Z M 13.21 3.894 C 13.076 3.626 13 3.323 13 3 L 11 3 C 11 3.641 11.152 4.25 11.422 4.79 L 13.21 3.894 Z M 5.237 11.236 L 11.869 14.552 L 12.763 12.764 L 6.131 9.448 L 5.237 11.236 Z M 13 15 C 13 14.677 13.076 14.374 13.21 14.106 L 11.422 13.21 C 11.152 13.75 11 14.359 11 15 L 13 15 Z M 13.21 14.106 C 13.54 13.448 14.218 13 15 13 L 15 11 C 13.433 11 12.078 11.902 11.422 13.21 L 13.21 14.106 Z" fill="currentColor" fill-rule="nonzero"></path>
</svg>