<svg xmlns="http://www.w3.org/2000/svg" width="18" height="18" viewBox="0 0 18 18" fill="none">
  <path d="M 0 -1 C -0.552 -1 -1 -0.552 -1 0 C -1 0.552 -0.552 1 0 1 L 0 -1 Z M 2 0 L 2.981 -0.196 C 2.887 -0.664 2.477 -1 2 -1 L 2 0 Z M 14 10 L 14 11 C 14.379 11 14.725 10.786 14.894 10.447 L 14 10 Z M 18 2 L 18.894 2.447 C 19.049 2.137 19.033 1.769 18.851 1.474 C 18.668 1.179 18.347 1 18 1 L 18 2 Z M 1.707 12.293 L 1 11.586 L 1 11.586 L 1.707 12.293 Z M 0 1 L 2 1 L 2 -1 L 0 -1 L 0 1 Z M 4 11 L 14 11 L 14 9 L 4 9 L 4 11 Z M 14.894 10.447 L 18.894 2.447 L 17.106 1.553 L 13.106 9.553 L 14.894 10.447 Z M 1.019 0.196 L 1.419 2.196 L 3.381 1.804 L 2.981 -0.196 L 1.019 0.196 Z M 1.419 2.196 L 3.019 10.196 L 4.981 9.804 L 3.381 1.804 L 1.419 2.196 Z M 2.4 3 L 18 3 L 18 1 L 2.4 1 L 2.4 3 Z M 15 16 C 15 16.552 14.552 17 14 17 L 14 19 C 15.657 19 17 17.657 17 16 L 15 16 Z M 14 17 C 13.448 17 13 16.552 13 16 L 11 16 C 11 17.657 12.343 19 14 19 L 14 17 Z M 13 16 C 13 15.448 13.448 15 14 15 L 14 13 C 12.343 13 11 14.343 11 16 L 13 16 Z M 14 15 C 14.552 15 15 15.448 15 16 L 17 16 C 17 14.343 15.657 13 14 13 L 14 15 Z M 5 16 C 5 16.552 4.552 17 4 17 L 4 19 C 5.657 19 7 17.657 7 16 L 5 16 Z M 4 17 C 3.448 17 3 16.552 3 16 L 1 16 C 1 17.657 2.343 19 4 19 L 4 17 Z M 3 16 C 3 15.448 3.448 15 4 15 L 4 13 C 2.343 13 1 14.343 1 16 L 3 16 Z M 4 15 C 4.552 15 5 15.448 5 16 L 7 16 C 7 14.343 5.657 13 4 13 L 4 15 Z M 2.414 15 L 14 15 L 14 13 L 2.414 13 L 2.414 15 Z M 2.414 13 L 4.707 10.707 L 3.293 9.293 L 1 11.586 L 2.414 13 Z M 2.414 13 L 2.414 13 L 1 11.586 C -0.26 12.846 0.632 15 2.414 15 L 2.414 13 Z" fill="currentColor" fill-rule="nonzero"></path>
</svg>