<svg xmlns="http://www.w3.org/2000/svg" width="18" height="18" viewBox="0 0 18 18" fill="none">
  <path d="M 10 0 L 10.949 -0.316 C 10.813 -0.725 10.43 -1 10 -1 C 9.57 -1 9.187 -0.725 9.051 -0.316 L 10 0 Z M 12.286 6.857 L 11.337 7.173 C 11.432 7.46 11.652 7.688 11.935 7.793 L 12.286 6.857 Z M 7.714 6.857 L 8.065 7.793 C 8.348 7.688 8.568 7.46 8.663 7.173 L 7.714 6.857 Z M 2 9 L 1.649 8.064 C 1.259 8.21 1 8.583 1 9 C 1 9.417 1.259 9.79 1.649 9.936 L 2 9 Z M 7.714 11.143 L 8.663 10.827 C 8.568 10.54 8.348 10.312 8.065 10.207 L 7.714 11.143 Z M 10 18 L 9.051 18.316 C 9.187 18.725 9.57 19 10 19 C 10.43 19 10.813 18.725 10.949 18.316 L 10 18 Z M 12.286 11.143 L 11.935 10.207 C 11.652 10.312 11.432 10.54 11.337 10.827 L 12.286 11.143 Z M 18 9 L 18.351 9.936 C 18.741 9.79 19 9.417 19 9 C 19 8.583 18.741 8.21 18.351 8.064 L 18 9 Z M 3 0 C 3 -0.552 2.552 -1 2 -1 C 1.448 -1 1 -0.552 1 0 L 3 0 Z M 1 4 C 1 4.552 1.448 5 2 5 C 2.552 5 3 4.552 3 4 L 1 4 Z M 0 1 C -0.552 1 -1 1.448 -1 2 C -1 2.552 -0.552 3 0 3 L 0 1 Z M 4 3 C 4.552 3 5 2.552 5 2 C 5 1.448 4.552 1 4 1 L 4 3 Z M 4 14 C 4 13.448 3.552 13 3 13 C 2.448 13 2 13.448 2 14 L 4 14 Z M 2 18 C 2 18.552 2.448 19 3 19 C 3.552 19 4 18.552 4 18 L 2 18 Z M 1 15 C 0.448 15 0 15.448 0 16 C 0 16.552 0.448 17 1 17 L 1 15 Z M 5 17 C 5.552 17 6 16.552 6 16 C 6 15.448 5.552 15 5 15 L 5 17 Z M 9.051 0.316 L 11.337 7.173 L 13.234 6.541 L 10.949 -0.316 L 9.051 0.316 Z M 8.663 7.173 L 10.949 0.316 L 9.051 -0.316 L 6.766 6.541 L 8.663 7.173 Z M 2.351 9.936 L 8.065 7.793 L 7.363 5.921 L 1.649 8.064 L 2.351 9.936 Z M 8.065 10.207 L 2.351 8.064 L 1.649 9.936 L 7.363 12.079 L 8.065 10.207 Z M 10.949 17.684 L 8.663 10.827 L 6.766 11.459 L 9.051 18.316 L 10.949 17.684 Z M 11.337 10.827 L 9.051 17.684 L 10.949 18.316 L 13.234 11.459 L 11.337 10.827 Z M 17.649 8.064 L 11.935 10.207 L 12.637 12.079 L 18.351 9.936 L 17.649 8.064 Z M 11.935 7.793 L 17.649 9.936 L 18.351 8.064 L 12.637 5.921 L 11.935 7.793 Z M 1 0 L 1 4 L 3 4 L 3 0 L 1 0 Z M 0 3 L 4 3 L 4 1 L 0 1 L 0 3 Z M 2 14 L 2 18 L 4 18 L 4 14 L 2 14 Z M 1 17 L 5 17 L 5 15 L 1 15 L 1 17 Z" fill="currentColor" fill-rule="nonzero"></path>
</svg>