<svg xmlns="http://www.w3.org/2000/svg" width="24" height="24" viewBox="0 0 24 24" fill="none">
  <path d="M 8.579 8.291 L 8.579 7.291 L 8.579 8.291 Z M 9.53 7.601 L 8.579 7.291 L 9.53 7.601 Z M 3.077 10.101 L 2.489 10.91 L 3.077 10.101 Z M 3.665 8.292 L 3.665 7.292 L 3.665 8.292 Z M 7.416 14.107 L 6.465 13.798 L 7.416 14.107 Z M 7.053 12.989 L 6.465 13.798 L 7.053 12.989 Z M 7.436 19.9 L 6.848 19.09 L 7.436 19.9 Z M 12.588 17.011 L 12 17.82 L 12.588 17.011 Z M 11.412 17.011 L 12 17.82 L 11.412 17.011 Z M 18.103 18.781 L 17.152 19.09 L 18.103 18.781 Z M 16.564 19.9 L 17.152 19.09 L 16.564 19.9 Z M 16.947 12.989 L 17.535 13.798 L 16.947 12.989 Z M 16.584 14.107 L 17.535 13.798 L 16.584 14.107 Z M 20.923 10.101 L 21.511 10.91 L 20.923 10.101 Z M 14.47 7.601 L 15.421 7.291 L 14.47 7.601 Z M 12.951 2.927 L 12 3.236 L 12.951 2.927 Z M 12 3.236 L 13.519 7.91 L 15.421 7.291 L 13.902 2.618 L 12 3.236 Z M 15.421 9.291 L 20.335 9.292 L 20.335 7.292 L 15.421 7.291 L 15.421 9.291 Z M 20.335 9.292 L 16.36 12.181 L 17.535 13.798 L 21.511 10.91 L 20.335 9.292 Z M 15.633 14.416 L 17.152 19.09 L 19.054 18.473 L 17.535 13.798 L 15.633 14.416 Z M 17.152 19.09 L 13.176 16.202 L 12 17.82 L 15.976 20.709 L 17.152 19.09 Z M 10.824 16.202 L 6.848 19.09 L 8.024 20.709 L 12 17.82 L 10.824 16.202 Z M 6.848 19.09 L 8.367 14.416 L 6.465 13.798 L 4.946 18.473 L 6.848 19.09 Z M 7.64 12.181 L 3.665 9.292 L 2.489 10.91 L 6.465 13.798 L 7.64 12.181 Z M 3.665 9.292 L 8.579 9.291 L 8.579 7.291 L 3.665 7.292 L 3.665 9.292 Z M 10.481 7.91 L 12 3.236 L 10.098 2.618 L 8.579 7.291 L 10.481 7.91 Z M 8.579 9.291 C 9.446 9.291 10.213 8.734 10.481 7.91 L 8.579 7.291 L 8.579 7.291 L 8.579 9.291 Z M 3.665 9.292 L 3.665 9.292 L 3.665 7.292 C 1.727 7.292 0.922 9.771 2.489 10.91 L 3.665 9.292 Z M 8.367 14.416 C 8.635 13.592 8.341 12.69 7.64 12.181 L 6.465 13.798 L 6.465 13.798 L 8.367 14.416 Z M 6.848 19.09 L 6.848 19.09 L 4.946 18.473 C 4.348 20.315 6.457 21.847 8.024 20.709 L 6.848 19.09 Z M 13.176 16.202 C 12.475 15.693 11.525 15.693 10.824 16.202 L 12 17.82 L 12 17.82 L 13.176 16.202 Z M 17.152 19.09 L 17.152 19.09 L 15.976 20.709 C 17.543 21.847 19.652 20.315 19.054 18.473 L 17.152 19.09 Z M 16.36 12.181 C 15.659 12.69 15.365 13.592 15.633 14.416 L 17.535 13.798 L 17.535 13.798 L 16.36 12.181 Z M 20.335 9.292 L 20.335 9.292 L 21.511 10.91 C 23.078 9.771 22.273 7.292 20.335 7.292 L 20.335 9.292 Z M 13.519 7.91 C 13.787 8.734 14.554 9.291 15.421 9.291 L 15.421 7.291 L 15.421 7.291 L 13.519 7.91 Z M 13.902 2.618 C 13.303 0.775 10.697 0.775 10.098 2.618 L 12 3.236 L 12 3.236 L 13.902 2.618 Z" fill="currentColor" fill-rule="nonzero"></path>
</svg>