<svg xmlns="http://www.w3.org/2000/svg" width="16" height="18" viewBox="0 0 16 18" fill="none">
  <path d="M 15.997 4.071 C 16.037 3.52 15.622 3.042 15.071 3.003 C 14.52 2.963 14.042 3.378 14.003 3.929 L 15.997 4.071 Z M 14.133 16.142 L 13.135 16.071 L 13.135 16.071 L 14.133 16.142 Z M 1.867 16.142 L 2.865 16.071 L 2.865 16.071 L 1.867 16.142 Z M 1.997 3.929 C 1.958 3.378 1.48 2.963 0.929 3.003 C 0.378 3.042 -0.037 3.52 0.003 4.071 L 1.997 3.929 Z M 7 8 C 7 7.448 6.552 7 6 7 C 5.448 7 5 7.448 5 8 L 7 8 Z M 5 14 C 5 14.552 5.448 15 6 15 C 6.552 15 7 14.552 7 14 L 5 14 Z M 11 8 C 11 7.448 10.552 7 10 7 C 9.448 7 9 7.448 9 8 L 11 8 Z M 9 14 C 9 14.552 9.448 15 10 15 C 10.552 15 11 14.552 11 14 L 9 14 Z M 10 4 C 10 4.552 10.448 5 11 5 C 11.552 5 12 4.552 12 4 L 10 4 Z M 4 4 C 4 4.552 4.448 5 5 5 C 5.552 5 6 4.552 6 4 L 4 4 Z M 0 3 C -0.552 3 -1 3.448 -1 4 C -1 4.552 -0.552 5 0 5 L 0 3 Z M 16 5 C 16.552 5 17 4.552 17 4 C 17 3.448 16.552 3 16 3 L 16 5 Z M 14.003 3.929 L 13.135 16.071 L 15.13 16.214 L 15.997 4.071 L 14.003 3.929 Z M 12.138 17 L 3.862 17 L 3.862 19 L 12.138 19 L 12.138 17 Z M 2.865 16.071 L 1.997 3.929 L 0.003 4.071 L 0.87 16.214 L 2.865 16.071 Z M 3.862 17 C 3.338 17 2.902 16.595 2.865 16.071 L 0.87 16.214 C 0.982 17.784 2.288 19 3.862 19 L 3.862 17 Z M 13.135 16.071 C 13.098 16.595 12.662 17 12.138 17 L 12.138 19 C 13.712 19 15.018 17.784 15.13 16.214 L 13.135 16.071 Z M 5 8 L 5 14 L 7 14 L 7 8 L 5 8 Z M 9 8 L 9 14 L 11 14 L 11 8 L 9 8 Z M 6 1 L 10 1 L 10 -1 L 6 -1 L 6 1 Z M 10 1 L 10 4 L 12 4 L 12 1 L 10 1 Z M 6 4 L 6 1 L 4 1 L 4 4 L 6 4 Z M 10 1 L 12 1 C 12 -0.105 11.105 -1 10 -1 L 10 1 Z M 6 -1 C 4.895 -1 4 -0.105 4 1 L 6 1 L 6 -1 Z M 0 5 L 16 5 L 16 3 L 0 3 L 0 5 Z" fill="currentColor" fill-rule="nonzero"></path>
</svg>