<svg xmlns="http://www.w3.org/2000/svg" width="14" height="18" viewBox="0 0 14 18" fill="none">
  <path d="M 0 18 L -1 18 C -1 18.552 -0.552 19 0 19 L 0 18 Z M 14 18 L 14 19 C 14.552 19 15 18.552 15 18 L 14 18 Z M 10 4 C 10 5.657 8.657 7 7 7 L 7 9 C 9.761 9 12 6.761 12 4 L 10 4 Z M 7 7 C 5.343 7 4 5.657 4 4 L 2 4 C 2 6.761 4.239 9 7 9 L 7 7 Z M 4 4 C 4 2.343 5.343 1 7 1 L 7 -1 C 4.239 -1 2 1.239 2 4 L 4 4 Z M 7 1 C 8.657 1 10 2.343 10 4 L 12 4 C 12 1.239 9.761 -1 7 -1 L 7 1 Z M 1 18 C 1 14.686 3.686 12 7 12 L 7 10 C 2.582 10 -1 13.582 -1 18 L 1 18 Z M 7 12 C 10.314 12 13 14.686 13 18 L 15 18 C 15 13.582 11.418 10 7 10 L 7 12 Z M 0 19 L 14 19 L 14 17 L 0 17 L 0 19 Z" fill="currentColor" fill-rule="nonzero"></path>
</svg>