<svg xmlns="http://www.w3.org/2000/svg" width="18" height="18" viewBox="0 0 18 18" fill="none">
  <path d="M 1.629 13.933 C 1.148 14.205 0.979 14.815 1.25 15.296 C 1.522 15.777 2.132 15.946 2.613 15.674 L 1.629 13.933 Z M 15.387 15.674 C 15.868 15.946 16.478 15.777 16.75 15.296 C 17.021 14.815 16.852 14.205 16.371 13.933 L 15.387 15.674 Z M 11 7 C 11 8.105 10.105 9 9 9 L 9 11 C 11.209 11 13 9.209 13 7 L 11 7 Z M 9 9 C 7.895 9 7 8.105 7 7 L 5 7 C 5 9.209 6.791 11 9 11 L 9 9 Z M 7 7 C 7 5.895 7.895 5 9 5 L 9 3 C 6.791 3 5 4.791 5 7 L 7 7 Z M 9 5 C 10.105 5 11 5.895 11 7 L 13 7 C 13 4.791 11.209 3 9 3 L 9 5 Z M 9 12 C 6.323 12 3.807 12.702 1.629 13.933 L 2.613 15.674 C 4.499 14.609 6.677 14 9 14 L 9 12 Z M 16.371 13.933 C 14.193 12.702 11.677 12 9 12 L 9 14 C 11.323 14 13.501 14.609 15.387 15.674 L 16.371 13.933 Z M 17 9 C 17 13.418 13.418 17 9 17 L 9 19 C 14.523 19 19 14.523 19 9 L 17 9 Z M 9 17 C 4.582 17 1 13.418 1 9 L -1 9 C -1 14.523 3.477 19 9 19 L 9 17 Z M 1 9 C 1 4.582 4.582 1 9 1 L 9 -1 C 3.477 -1 -1 3.477 -1 9 L 1 9 Z M 9 1 C 13.418 1 17 4.582 17 9 L 19 9 C 19 3.477 14.523 -1 9 -1 L 9 1 Z" fill="currentColor" fill-rule="nonzero"></path>
</svg>