<svg xmlns="http://www.w3.org/2000/svg" width="16" height="16" viewBox="0 0 16 16" fill="none">
  <path d="M 2 1 L 4 1 L 4 -1 L 2 -1 L 2 1 Z M 5 2 L 5 4 L 7 4 L 7 2 L 5 2 Z M 4 5 L 2 5 L 2 7 L 4 7 L 4 5 Z M 1 4 L 1 2 L -1 2 L -1 4 L 1 4 Z M 2 5 C 1.448 5 1 4.552 1 4 L -1 4 C -1 5.657 0.343 7 2 7 L 2 5 Z M 5 4 C 5 4.552 4.552 5 4 5 L 4 7 C 5.657 7 7 5.657 7 4 L 5 4 Z M 4 1 C 4.552 1 5 1.448 5 2 L 7 2 C 7 0.343 5.657 -1 4 -1 L 4 1 Z M 2 -1 C 0.343 -1 -1 0.343 -1 2 L 1 2 C 1 1.448 1.448 1 2 1 L 2 -1 Z M 12 1 L 14 1 L 14 -1 L 12 -1 L 12 1 Z M 15 2 L 15 4 L 17 4 L 17 2 L 15 2 Z M 14 5 L 12 5 L 12 7 L 14 7 L 14 5 Z M 11 4 L 11 2 L 9 2 L 9 4 L 11 4 Z M 12 5 C 11.448 5 11 4.552 11 4 L 9 4 C 9 5.657 10.343 7 12 7 L 12 5 Z M 15 4 C 15 4.552 14.552 5 14 5 L 14 7 C 15.657 7 17 5.657 17 4 L 15 4 Z M 14 1 C 14.552 1 15 1.448 15 2 L 17 2 C 17 0.343 15.657 -1 14 -1 L 14 1 Z M 12 -1 C 10.343 -1 9 0.343 9 2 L 11 2 C 11 1.448 11.448 1 12 1 L 12 -1 Z M 2 11 L 4 11 L 4 9 L 2 9 L 2 11 Z M 5 12 L 5 14 L 7 14 L 7 12 L 5 12 Z M 4 15 L 2 15 L 2 17 L 4 17 L 4 15 Z M 1 14 L 1 12 L -1 12 L -1 14 L 1 14 Z M 2 15 C 1.448 15 1 14.552 1 14 L -1 14 C -1 15.657 0.343 17 2 17 L 2 15 Z M 5 14 C 5 14.552 4.552 15 4 15 L 4 17 C 5.657 17 7 15.657 7 14 L 5 14 Z M 4 11 C 4.552 11 5 11.448 5 12 L 7 12 C 7 10.343 5.657 9 4 9 L 4 11 Z M 2 9 C 0.343 9 -1 10.343 -1 12 L 1 12 C 1 11.448 1.448 11 2 11 L 2 9 Z M 12 11 L 14 11 L 14 9 L 12 9 L 12 11 Z M 15 12 L 15 14 L 17 14 L 17 12 L 15 12 Z M 14 15 L 12 15 L 12 17 L 14 17 L 14 15 Z M 11 14 L 11 12 L 9 12 L 9 14 L 11 14 Z M 12 15 C 11.448 15 11 14.552 11 14 L 9 14 C 9 15.657 10.343 17 12 17 L 12 15 Z M 15 14 C 15 14.552 14.552 15 14 15 L 14 17 C 15.657 17 17 15.657 17 14 L 15 14 Z M 14 11 C 14.552 11 15 11.448 15 12 L 17 12 C 17 10.343 15.657 9 14 9 L 14 11 Z M 12 9 C 10.343 9 9 10.343 9 12 L 11 12 C 11 11.448 11.448 11 12 11 L 12 9 Z" fill="currentColor" fill-rule="nonzero"></path>
</svg>