<svg xmlns="http://www.w3.org/2000/svg" width="16" height="12" viewBox="0 0 16 12" fill="none">
  <path d="M 0 -1 C -0.552 -1 -1 -0.552 -1 0 C -1 0.552 -0.552 1 0 1 L 0 -1 Z M 16 1 C 16.552 1 17 0.552 17 0 C 17 -0.552 16.552 -1 16 -1 L 16 1 Z M 0 3 C -0.552 3 -1 3.448 -1 4 C -1 4.552 -0.552 5 0 5 L 0 3 Z M 16 5 C 16.552 5 17 4.552 17 4 C 17 3.448 16.552 3 16 3 L 16 5 Z M 0 7 C -0.552 7 -1 7.448 -1 8 C -1 8.552 -0.552 9 0 9 L 0 7 Z M 16 9 C 16.552 9 17 8.552 17 8 C 17 7.448 16.552 7 16 7 L 16 9 Z M 0 11 C -0.552 11 -1 11.448 -1 12 C -1 12.552 -0.552 13 0 13 L 0 11 Z M 16 13 C 16.552 13 17 12.552 17 12 C 17 11.448 16.552 11 16 11 L 16 13 Z M 0 1 L 16 1 L 16 -1 L 0 -1 L 0 1 Z M 0 5 L 16 5 L 16 3 L 0 3 L 0 5 Z M 0 9 L 16 9 L 16 7 L 0 7 L 0 9 Z M 0 13 L 16 13 L 16 11 L 0 11 L 0 13 Z" fill="currentColor" fill-rule="nonzero"></path>
</svg>